M48
; DRILL file {KiCad 7.0.5} date Sun Jun 11 14:57:03 2023
; FORMAT={-:-/ absolute / metric / decimal}
; #@! TF.CreationDate,2023-06-11T14:57:03+10:00
; #@! TF.GenerationSoftware,Kicad,Pcbnew,7.0.5
; #@! TF.FileFunction,Plated,1,2,PTH
FMAT,2
METRIC
; #@! TA.AperFunction,Plated,PTH,ViaDrill
T1C0.400
; #@! TA.AperFunction,Plated,PTH,ComponentDrill
T2C0.700
; #@! TA.AperFunction,Plated,PTH,ComponentDrill
T3C0.800
; #@! TA.AperFunction,Plated,PTH,ComponentDrill
T4C0.900
; #@! TA.AperFunction,Plated,PTH,ComponentDrill
T5C1.000
; #@! TA.AperFunction,Plated,PTH,ComponentDrill
T6C1.300
; #@! TA.AperFunction,Plated,PTH,ComponentDrill
T7C2.200
%
G90
G05
T1
X201.422Y-89.662
X215.138Y-90.424
T2
X198.628Y-69.342
X198.628Y-76.962
X220.438Y-72.898
X220.546Y-75.624
X228.058Y-72.898
X228.166Y-75.624
T3
X220.546Y-78.624
X224.536Y-82.804
X224.536Y-85.344
X224.536Y-87.884
X224.536Y-90.424
X227.106Y-94.624
X228.166Y-78.624
X229.606Y-94.624
X232.156Y-82.804
X232.156Y-85.344
X232.156Y-87.884
X232.156Y-90.424
X235.356Y-87.924
X235.356Y-90.424
T4
X202.748Y-73.0
X205.287Y-73.0
T5
X197.62Y-99.92
X197.62Y-107.54
X212.09Y-84.836
X212.5Y-107.95
X215.0Y-107.95
X217.5Y-107.95
X235.72Y-94.84
X242.705Y-94.84
X243.078Y-80.46
X243.078Y-83.0
X243.078Y-85.54
T6
X190.0Y-82.5
X190.0Y-87.5
T7
X210.6Y-100.95
X219.4Y-100.95
T0
M30
