%TF.GenerationSoftware,KiCad,Pcbnew,7.0.5*%
%TF.CreationDate,2023-06-11T14:56:47+10:00*%
%TF.ProjectId,Servo Controller 555,53657276-6f20-4436-9f6e-74726f6c6c65,rev?*%
%TF.SameCoordinates,Original*%
%TF.FileFunction,Legend,Bot*%
%TF.FilePolarity,Positive*%
%FSLAX46Y46*%
G04 Gerber Fmt 4.6, Leading zero omitted, Abs format (unit mm)*
G04 Created by KiCad (PCBNEW 7.0.5) date 2023-06-11 14:56:47*
%MOMM*%
%LPD*%
G01*
G04 APERTURE LIST*
%ADD10C,0.150000*%
G04 APERTURE END LIST*
D10*
X235375220Y-62353819D02*
X235375220Y-61353819D01*
X235375220Y-61353819D02*
X235041887Y-62068104D01*
X235041887Y-62068104D02*
X234708554Y-61353819D01*
X234708554Y-61353819D02*
X234708554Y-62353819D01*
X234232363Y-62258580D02*
X234184744Y-62306200D01*
X234184744Y-62306200D02*
X234232363Y-62353819D01*
X234232363Y-62353819D02*
X234279982Y-62306200D01*
X234279982Y-62306200D02*
X234232363Y-62258580D01*
X234232363Y-62258580D02*
X234232363Y-62353819D01*
X233184745Y-62353819D02*
X233518078Y-61877628D01*
X233756173Y-62353819D02*
X233756173Y-61353819D01*
X233756173Y-61353819D02*
X233375221Y-61353819D01*
X233375221Y-61353819D02*
X233279983Y-61401438D01*
X233279983Y-61401438D02*
X233232364Y-61449057D01*
X233232364Y-61449057D02*
X233184745Y-61544295D01*
X233184745Y-61544295D02*
X233184745Y-61687152D01*
X233184745Y-61687152D02*
X233232364Y-61782390D01*
X233232364Y-61782390D02*
X233279983Y-61830009D01*
X233279983Y-61830009D02*
X233375221Y-61877628D01*
X233375221Y-61877628D02*
X233756173Y-61877628D01*
X232327602Y-61687152D02*
X232327602Y-62353819D01*
X232756173Y-61687152D02*
X232756173Y-62210961D01*
X232756173Y-62210961D02*
X232708554Y-62306200D01*
X232708554Y-62306200D02*
X232613316Y-62353819D01*
X232613316Y-62353819D02*
X232470459Y-62353819D01*
X232470459Y-62353819D02*
X232375221Y-62306200D01*
X232375221Y-62306200D02*
X232327602Y-62258580D01*
X231851411Y-61687152D02*
X231851411Y-62687152D01*
X231851411Y-61734771D02*
X231756173Y-61687152D01*
X231756173Y-61687152D02*
X231565697Y-61687152D01*
X231565697Y-61687152D02*
X231470459Y-61734771D01*
X231470459Y-61734771D02*
X231422840Y-61782390D01*
X231422840Y-61782390D02*
X231375221Y-61877628D01*
X231375221Y-61877628D02*
X231375221Y-62163342D01*
X231375221Y-62163342D02*
X231422840Y-62258580D01*
X231422840Y-62258580D02*
X231470459Y-62306200D01*
X231470459Y-62306200D02*
X231565697Y-62353819D01*
X231565697Y-62353819D02*
X231756173Y-62353819D01*
X231756173Y-62353819D02*
X231851411Y-62306200D01*
X230946649Y-61687152D02*
X230946649Y-62687152D01*
X230946649Y-61734771D02*
X230851411Y-61687152D01*
X230851411Y-61687152D02*
X230660935Y-61687152D01*
X230660935Y-61687152D02*
X230565697Y-61734771D01*
X230565697Y-61734771D02*
X230518078Y-61782390D01*
X230518078Y-61782390D02*
X230470459Y-61877628D01*
X230470459Y-61877628D02*
X230470459Y-62163342D01*
X230470459Y-62163342D02*
X230518078Y-62258580D01*
X230518078Y-62258580D02*
X230565697Y-62306200D01*
X230565697Y-62306200D02*
X230660935Y-62353819D01*
X230660935Y-62353819D02*
X230851411Y-62353819D01*
X230851411Y-62353819D02*
X230946649Y-62306200D01*
X229660935Y-62306200D02*
X229756173Y-62353819D01*
X229756173Y-62353819D02*
X229946649Y-62353819D01*
X229946649Y-62353819D02*
X230041887Y-62306200D01*
X230041887Y-62306200D02*
X230089506Y-62210961D01*
X230089506Y-62210961D02*
X230089506Y-61830009D01*
X230089506Y-61830009D02*
X230041887Y-61734771D01*
X230041887Y-61734771D02*
X229946649Y-61687152D01*
X229946649Y-61687152D02*
X229756173Y-61687152D01*
X229756173Y-61687152D02*
X229660935Y-61734771D01*
X229660935Y-61734771D02*
X229613316Y-61830009D01*
X229613316Y-61830009D02*
X229613316Y-61925247D01*
X229613316Y-61925247D02*
X230089506Y-62020485D01*
X228470458Y-61449057D02*
X228422839Y-61401438D01*
X228422839Y-61401438D02*
X228327601Y-61353819D01*
X228327601Y-61353819D02*
X228089506Y-61353819D01*
X228089506Y-61353819D02*
X227994268Y-61401438D01*
X227994268Y-61401438D02*
X227946649Y-61449057D01*
X227946649Y-61449057D02*
X227899030Y-61544295D01*
X227899030Y-61544295D02*
X227899030Y-61639533D01*
X227899030Y-61639533D02*
X227946649Y-61782390D01*
X227946649Y-61782390D02*
X228518077Y-62353819D01*
X228518077Y-62353819D02*
X227899030Y-62353819D01*
X227279982Y-61353819D02*
X227184744Y-61353819D01*
X227184744Y-61353819D02*
X227089506Y-61401438D01*
X227089506Y-61401438D02*
X227041887Y-61449057D01*
X227041887Y-61449057D02*
X226994268Y-61544295D01*
X226994268Y-61544295D02*
X226946649Y-61734771D01*
X226946649Y-61734771D02*
X226946649Y-61972866D01*
X226946649Y-61972866D02*
X226994268Y-62163342D01*
X226994268Y-62163342D02*
X227041887Y-62258580D01*
X227041887Y-62258580D02*
X227089506Y-62306200D01*
X227089506Y-62306200D02*
X227184744Y-62353819D01*
X227184744Y-62353819D02*
X227279982Y-62353819D01*
X227279982Y-62353819D02*
X227375220Y-62306200D01*
X227375220Y-62306200D02*
X227422839Y-62258580D01*
X227422839Y-62258580D02*
X227470458Y-62163342D01*
X227470458Y-62163342D02*
X227518077Y-61972866D01*
X227518077Y-61972866D02*
X227518077Y-61734771D01*
X227518077Y-61734771D02*
X227470458Y-61544295D01*
X227470458Y-61544295D02*
X227422839Y-61449057D01*
X227422839Y-61449057D02*
X227375220Y-61401438D01*
X227375220Y-61401438D02*
X227279982Y-61353819D01*
X226565696Y-61449057D02*
X226518077Y-61401438D01*
X226518077Y-61401438D02*
X226422839Y-61353819D01*
X226422839Y-61353819D02*
X226184744Y-61353819D01*
X226184744Y-61353819D02*
X226089506Y-61401438D01*
X226089506Y-61401438D02*
X226041887Y-61449057D01*
X226041887Y-61449057D02*
X225994268Y-61544295D01*
X225994268Y-61544295D02*
X225994268Y-61639533D01*
X225994268Y-61639533D02*
X226041887Y-61782390D01*
X226041887Y-61782390D02*
X226613315Y-62353819D01*
X226613315Y-62353819D02*
X225994268Y-62353819D01*
X225660934Y-61353819D02*
X225041887Y-61353819D01*
X225041887Y-61353819D02*
X225375220Y-61734771D01*
X225375220Y-61734771D02*
X225232363Y-61734771D01*
X225232363Y-61734771D02*
X225137125Y-61782390D01*
X225137125Y-61782390D02*
X225089506Y-61830009D01*
X225089506Y-61830009D02*
X225041887Y-61925247D01*
X225041887Y-61925247D02*
X225041887Y-62163342D01*
X225041887Y-62163342D02*
X225089506Y-62258580D01*
X225089506Y-62258580D02*
X225137125Y-62306200D01*
X225137125Y-62306200D02*
X225232363Y-62353819D01*
X225232363Y-62353819D02*
X225518077Y-62353819D01*
X225518077Y-62353819D02*
X225613315Y-62306200D01*
X225613315Y-62306200D02*
X225660934Y-62258580D01*
%TO.C,G\u002A\u002A\u002A*%
G36*
X234442618Y-106162908D02*
G01*
X234445406Y-106169317D01*
X234453961Y-106187967D01*
X234465290Y-106211901D01*
X234477703Y-106237525D01*
X234485153Y-106253155D01*
X234494176Y-106273651D01*
X234499700Y-106288352D01*
X234500743Y-106294813D01*
X234498173Y-106295308D01*
X234485121Y-106296089D01*
X234462373Y-106296783D01*
X234431375Y-106297367D01*
X234393573Y-106297814D01*
X234350412Y-106298101D01*
X234303339Y-106298202D01*
X234274479Y-106298240D01*
X234229901Y-106298456D01*
X234190261Y-106298843D01*
X234156970Y-106299376D01*
X234131441Y-106300029D01*
X234115088Y-106300779D01*
X234109323Y-106301600D01*
X234111358Y-106306464D01*
X234118097Y-106321319D01*
X234129118Y-106345195D01*
X234143972Y-106377132D01*
X234162210Y-106416169D01*
X234183383Y-106461347D01*
X234207043Y-106511706D01*
X234232741Y-106566285D01*
X234260029Y-106624125D01*
X234282709Y-106672165D01*
X234309587Y-106729140D01*
X234334878Y-106782794D01*
X234358077Y-106832052D01*
X234378676Y-106875839D01*
X234396171Y-106913078D01*
X234410055Y-106942694D01*
X234419822Y-106963612D01*
X234424967Y-106974755D01*
X234439198Y-107006258D01*
X234338175Y-107006258D01*
X234237152Y-107006258D01*
X234070270Y-106652230D01*
X233903387Y-106298202D01*
X233704066Y-106298202D01*
X233690212Y-106298197D01*
X233635271Y-106298040D01*
X233591150Y-106297637D01*
X233556889Y-106296953D01*
X233531524Y-106295952D01*
X233514092Y-106294601D01*
X233503632Y-106292862D01*
X233499181Y-106290702D01*
X233498107Y-106289030D01*
X233492206Y-106277998D01*
X233483212Y-106259918D01*
X233472322Y-106237336D01*
X233460731Y-106212799D01*
X233449635Y-106188854D01*
X233440229Y-106168048D01*
X233433709Y-106152927D01*
X233431270Y-106146037D01*
X233433545Y-106145671D01*
X233446403Y-106145100D01*
X233469838Y-106144561D01*
X233502971Y-106144061D01*
X233544923Y-106143605D01*
X233594815Y-106143201D01*
X233651768Y-106142855D01*
X233714903Y-106142574D01*
X233783342Y-106142365D01*
X233856206Y-106142235D01*
X233932616Y-106142190D01*
X234433961Y-106142190D01*
X234442618Y-106162908D01*
G37*
G36*
X232713044Y-106142222D02*
G01*
X233158248Y-106142254D01*
X233359264Y-106568757D01*
X233368419Y-106588183D01*
X233399674Y-106654522D01*
X233429337Y-106717511D01*
X233457015Y-106776316D01*
X233482316Y-106830104D01*
X233504850Y-106878039D01*
X233524223Y-106919289D01*
X233540045Y-106953020D01*
X233551923Y-106978398D01*
X233559465Y-106994589D01*
X233562280Y-107000759D01*
X233561035Y-107001262D01*
X233549860Y-107002228D01*
X233527619Y-107003110D01*
X233494936Y-107003899D01*
X233452440Y-107004588D01*
X233400755Y-107005168D01*
X233340509Y-107005634D01*
X233272328Y-107005975D01*
X233196838Y-107006186D01*
X233114665Y-107006258D01*
X232665050Y-107006258D01*
X232628127Y-106928753D01*
X232622972Y-106917898D01*
X232610460Y-106891240D01*
X232600379Y-106869310D01*
X232593652Y-106854136D01*
X232591204Y-106847747D01*
X232595052Y-106847225D01*
X232609825Y-106846615D01*
X232634681Y-106846050D01*
X232668561Y-106845544D01*
X232710405Y-106845105D01*
X232759153Y-106844745D01*
X232813746Y-106844474D01*
X232873126Y-106844304D01*
X232936231Y-106844245D01*
X232987633Y-106844215D01*
X233047799Y-106844101D01*
X233103381Y-106843908D01*
X233153318Y-106843645D01*
X233196551Y-106843321D01*
X233232021Y-106842943D01*
X233258669Y-106842520D01*
X233275434Y-106842059D01*
X233281258Y-106841570D01*
X233278874Y-106835632D01*
X233272172Y-106820561D01*
X233261948Y-106798111D01*
X233248997Y-106770029D01*
X233234116Y-106738062D01*
X233186973Y-106637229D01*
X232985950Y-106635650D01*
X232784926Y-106634071D01*
X232751070Y-106561954D01*
X232748203Y-106555839D01*
X232736066Y-106529701D01*
X232726224Y-106508123D01*
X232719624Y-106493200D01*
X232717214Y-106487027D01*
X232719449Y-106486602D01*
X232731924Y-106485958D01*
X232754117Y-106485386D01*
X232784620Y-106484905D01*
X232822021Y-106484536D01*
X232864909Y-106484300D01*
X232911875Y-106484217D01*
X232940930Y-106484167D01*
X232985796Y-106483880D01*
X233025833Y-106483367D01*
X233059606Y-106482662D01*
X233085681Y-106481796D01*
X233102624Y-106480804D01*
X233109001Y-106479717D01*
X233108169Y-106475525D01*
X233103008Y-106461926D01*
X233093973Y-106440846D01*
X233081869Y-106414152D01*
X233067504Y-106383709D01*
X233023542Y-106292202D01*
X232681439Y-106292202D01*
X232339335Y-106292202D01*
X232318180Y-106250195D01*
X232305853Y-106225191D01*
X232292832Y-106197886D01*
X232282432Y-106175189D01*
X232267839Y-106142190D01*
X232713044Y-106142222D01*
G37*
G36*
X232169870Y-106698956D02*
G01*
X232221920Y-106749161D01*
X232270173Y-106795737D01*
X232313937Y-106838013D01*
X232352518Y-106875319D01*
X232385222Y-106906986D01*
X232411357Y-106932345D01*
X232430229Y-106950724D01*
X232441144Y-106961454D01*
X232486099Y-107006258D01*
X232386546Y-107006258D01*
X232286994Y-107006258D01*
X232187588Y-106910189D01*
X232088182Y-106814120D01*
X231816152Y-106815681D01*
X231544121Y-106817243D01*
X231537111Y-106901250D01*
X231536326Y-106910685D01*
X231533828Y-106941118D01*
X231531743Y-106967113D01*
X231530271Y-106986161D01*
X231529610Y-106995757D01*
X231528782Y-106999076D01*
X231525370Y-107001869D01*
X231517815Y-107003832D01*
X231504547Y-107005109D01*
X231483993Y-107005843D01*
X231454583Y-107006178D01*
X231414744Y-107006258D01*
X231300367Y-107006258D01*
X231303883Y-106980756D01*
X231304693Y-106974188D01*
X231306781Y-106955808D01*
X231309852Y-106927901D01*
X231313782Y-106891659D01*
X231318445Y-106848276D01*
X231323716Y-106798943D01*
X231329469Y-106744852D01*
X231335579Y-106687195D01*
X231339748Y-106647730D01*
X231553059Y-106647730D01*
X231553689Y-106650548D01*
X231556452Y-106652917D01*
X231562582Y-106654744D01*
X231573312Y-106656100D01*
X231589876Y-106657052D01*
X231613507Y-106657672D01*
X231645438Y-106658029D01*
X231686904Y-106658192D01*
X231739137Y-106658231D01*
X231761079Y-106658199D01*
X231805201Y-106657933D01*
X231844535Y-106657426D01*
X231877641Y-106656713D01*
X231903074Y-106655830D01*
X231919391Y-106654811D01*
X231925151Y-106653691D01*
X231924414Y-106652535D01*
X231917001Y-106644173D01*
X231902343Y-106628651D01*
X231881332Y-106606884D01*
X231854859Y-106579788D01*
X231823817Y-106548278D01*
X231789099Y-106513269D01*
X231751597Y-106475676D01*
X231578044Y-106302199D01*
X231574837Y-106322703D01*
X231574372Y-106326534D01*
X231572949Y-106342266D01*
X231571008Y-106366897D01*
X231568687Y-106398358D01*
X231566124Y-106434580D01*
X231563458Y-106473496D01*
X231560827Y-106513037D01*
X231558371Y-106551135D01*
X231556227Y-106585722D01*
X231554535Y-106614729D01*
X231553433Y-106636087D01*
X231553059Y-106647730D01*
X231339748Y-106647730D01*
X231341920Y-106627166D01*
X231348368Y-106565955D01*
X231354796Y-106504755D01*
X231361081Y-106444759D01*
X231367095Y-106387158D01*
X231372714Y-106333145D01*
X231377812Y-106283912D01*
X231382265Y-106240651D01*
X231385946Y-106204555D01*
X231388731Y-106176815D01*
X231390494Y-106158624D01*
X231391109Y-106151174D01*
X231392430Y-106148040D01*
X231397800Y-106145570D01*
X231408816Y-106143914D01*
X231427065Y-106142933D01*
X231454136Y-106142490D01*
X231491617Y-106142447D01*
X231592125Y-106142703D01*
X231994157Y-106529677D01*
X231997879Y-106533260D01*
X232057156Y-106590336D01*
X232114718Y-106645791D01*
X232122913Y-106653691D01*
X232169870Y-106698956D01*
G37*
G36*
X230029315Y-106397183D02*
G01*
X230035072Y-106401759D01*
X230095571Y-106449697D01*
X230151017Y-106493352D01*
X230200878Y-106532317D01*
X230244617Y-106566182D01*
X230281702Y-106594538D01*
X230311597Y-106616977D01*
X230333769Y-106633090D01*
X230347683Y-106642468D01*
X230352805Y-106644702D01*
X230353800Y-106641744D01*
X230358150Y-106628366D01*
X230365525Y-106605493D01*
X230375535Y-106574340D01*
X230387790Y-106536120D01*
X230401901Y-106492049D01*
X230417477Y-106443341D01*
X230434130Y-106391210D01*
X230512677Y-106145190D01*
X230596365Y-106143699D01*
X230680053Y-106142207D01*
X230881069Y-106568974D01*
X230890308Y-106588590D01*
X230921553Y-106654944D01*
X230951206Y-106717945D01*
X230978876Y-106776757D01*
X231004171Y-106830548D01*
X231026700Y-106878485D01*
X231046071Y-106919733D01*
X231061892Y-106953459D01*
X231073773Y-106978830D01*
X231081320Y-106995013D01*
X231084143Y-107001173D01*
X231084078Y-107001605D01*
X231077063Y-107003451D01*
X231060183Y-107004677D01*
X231035215Y-107005198D01*
X231003931Y-107004931D01*
X230921661Y-107003258D01*
X230786479Y-106716612D01*
X230774766Y-106691807D01*
X230749581Y-106638685D01*
X230726126Y-106589506D01*
X230704883Y-106545259D01*
X230686332Y-106506932D01*
X230670952Y-106475516D01*
X230659224Y-106451999D01*
X230651628Y-106437370D01*
X230648644Y-106432620D01*
X230648125Y-106433763D01*
X230644491Y-106444127D01*
X230637833Y-106464237D01*
X230628544Y-106492874D01*
X230617017Y-106528815D01*
X230603643Y-106570841D01*
X230588814Y-106617730D01*
X230572924Y-106668261D01*
X230499856Y-106901250D01*
X230478946Y-106901175D01*
X230478244Y-106901159D01*
X230473040Y-106900302D01*
X230466360Y-106897741D01*
X230457495Y-106892937D01*
X230445740Y-106885349D01*
X230430387Y-106874439D01*
X230410730Y-106859665D01*
X230386062Y-106840488D01*
X230355675Y-106816368D01*
X230318864Y-106786765D01*
X230274921Y-106751138D01*
X230223139Y-106708948D01*
X230162812Y-106659656D01*
X230149338Y-106648638D01*
X230098477Y-106607094D01*
X230050590Y-106568044D01*
X230006464Y-106532127D01*
X229966888Y-106499983D01*
X229932651Y-106472249D01*
X229904541Y-106449567D01*
X229883348Y-106432573D01*
X229869859Y-106421909D01*
X229864864Y-106418212D01*
X229865269Y-106419644D01*
X229869715Y-106430131D01*
X229878602Y-106449961D01*
X229891474Y-106478143D01*
X229907872Y-106513686D01*
X229927339Y-106555602D01*
X229949417Y-106602899D01*
X229973648Y-106654586D01*
X229999575Y-106709675D01*
X230012943Y-106738038D01*
X230038193Y-106791683D01*
X230061598Y-106841502D01*
X230082688Y-106886489D01*
X230100994Y-106925643D01*
X230116048Y-106957959D01*
X230127381Y-106982435D01*
X230134525Y-106998066D01*
X230137011Y-107003850D01*
X230134928Y-107004381D01*
X230123049Y-107005023D01*
X230102417Y-107005340D01*
X230075061Y-107005310D01*
X230043010Y-107004910D01*
X229949010Y-107003258D01*
X229758225Y-106598226D01*
X229728167Y-106534419D01*
X229698265Y-106470948D01*
X229670031Y-106411027D01*
X229643896Y-106355569D01*
X229620291Y-106305487D01*
X229599645Y-106261694D01*
X229582391Y-106225105D01*
X229568958Y-106196633D01*
X229559778Y-106177191D01*
X229555280Y-106167692D01*
X229543120Y-106142190D01*
X229625861Y-106142190D01*
X229708603Y-106142190D01*
X230029315Y-106397183D01*
G37*
G36*
X228895710Y-106143245D02*
G01*
X228937180Y-106143847D01*
X228971417Y-106144856D01*
X228999463Y-106146334D01*
X229022360Y-106148340D01*
X229041146Y-106150937D01*
X229056864Y-106154187D01*
X229070554Y-106158149D01*
X229083257Y-106162886D01*
X229096014Y-106168459D01*
X229118758Y-106180453D01*
X229145079Y-106199353D01*
X229169930Y-106223734D01*
X229194240Y-106254813D01*
X229218941Y-106293810D01*
X229244963Y-106341941D01*
X229273238Y-106400426D01*
X229293485Y-106445598D01*
X229311559Y-106490806D01*
X229323231Y-106527885D01*
X229328570Y-106557888D01*
X229327642Y-106581871D01*
X229320516Y-106600886D01*
X229307261Y-106615987D01*
X229287944Y-106628228D01*
X229257941Y-106643229D01*
X228947417Y-106645029D01*
X228925626Y-106645161D01*
X228867074Y-106645568D01*
X228812706Y-106646023D01*
X228763638Y-106646512D01*
X228720987Y-106647020D01*
X228685871Y-106647534D01*
X228659405Y-106648040D01*
X228642707Y-106648522D01*
X228636892Y-106648967D01*
X228638660Y-106653330D01*
X228644790Y-106667013D01*
X228654518Y-106688240D01*
X228667026Y-106715224D01*
X228681491Y-106746175D01*
X228726089Y-106841245D01*
X229029940Y-106842800D01*
X229333791Y-106844356D01*
X229329586Y-106830799D01*
X229325705Y-106820697D01*
X229317676Y-106802661D01*
X229307770Y-106782133D01*
X229299387Y-106764525D01*
X229293751Y-106750821D01*
X229292447Y-106744734D01*
X229295859Y-106744160D01*
X229309245Y-106745263D01*
X229330321Y-106748369D01*
X229356661Y-106752986D01*
X229385840Y-106758620D01*
X229415434Y-106764779D01*
X229443016Y-106770969D01*
X229466163Y-106776697D01*
X229482449Y-106781470D01*
X229489448Y-106784795D01*
X229491629Y-106788643D01*
X229499290Y-106805581D01*
X229508392Y-106828983D01*
X229517601Y-106855130D01*
X229525583Y-106880298D01*
X229531004Y-106900767D01*
X229534112Y-106919397D01*
X229533057Y-106947520D01*
X229522655Y-106968973D01*
X229502155Y-106984948D01*
X229470808Y-106996640D01*
X229456631Y-106998776D01*
X229431846Y-107000661D01*
X229397856Y-107002292D01*
X229356056Y-107003667D01*
X229307844Y-107004784D01*
X229254616Y-107005641D01*
X229197769Y-107006238D01*
X229138700Y-107006572D01*
X229078806Y-107006642D01*
X229019483Y-107006447D01*
X228962128Y-107005983D01*
X228908137Y-107005251D01*
X228858908Y-107004248D01*
X228815837Y-107002972D01*
X228780321Y-107001423D01*
X228753756Y-106999598D01*
X228737540Y-106997496D01*
X228700401Y-106987984D01*
X228665732Y-106974011D01*
X228635688Y-106954773D01*
X228606378Y-106928214D01*
X228596665Y-106917923D01*
X228585074Y-106904126D01*
X228573877Y-106888424D01*
X228561988Y-106869017D01*
X228548324Y-106844109D01*
X228531799Y-106811901D01*
X228511330Y-106770594D01*
X228500313Y-106747985D01*
X228474902Y-106694002D01*
X228455326Y-106648933D01*
X228441337Y-106611774D01*
X228432684Y-106581525D01*
X228429121Y-106557183D01*
X228430396Y-106537746D01*
X228436262Y-106522212D01*
X228446469Y-106509578D01*
X228451960Y-106504537D01*
X228458547Y-106499246D01*
X228465969Y-106494818D01*
X228475241Y-106491168D01*
X228487377Y-106488213D01*
X228503392Y-106485867D01*
X228524303Y-106484048D01*
X228551124Y-106482670D01*
X228584869Y-106481649D01*
X228626555Y-106480901D01*
X228677197Y-106480342D01*
X228737808Y-106479887D01*
X228809406Y-106479453D01*
X228833739Y-106479300D01*
X228892442Y-106478836D01*
X228946924Y-106478273D01*
X228996073Y-106477630D01*
X229038778Y-106476929D01*
X229073928Y-106476188D01*
X229100411Y-106475426D01*
X229117115Y-106474664D01*
X229122931Y-106473921D01*
X229122030Y-106471215D01*
X229116944Y-106459169D01*
X229108124Y-106439365D01*
X229096436Y-106413735D01*
X229082745Y-106384211D01*
X229042558Y-106298202D01*
X228758719Y-106298202D01*
X228702129Y-106298246D01*
X228648847Y-106298372D01*
X228600557Y-106298573D01*
X228558428Y-106298838D01*
X228523628Y-106299160D01*
X228497324Y-106299529D01*
X228480685Y-106299936D01*
X228474880Y-106300372D01*
X228474933Y-106300655D01*
X228477859Y-106308125D01*
X228484372Y-106323206D01*
X228493234Y-106343023D01*
X228494699Y-106346274D01*
X228502949Y-106365467D01*
X228508297Y-106379469D01*
X228509647Y-106385444D01*
X228507101Y-106385416D01*
X228494692Y-106383578D01*
X228473818Y-106379840D01*
X228446509Y-106374572D01*
X228414795Y-106368144D01*
X228321885Y-106348903D01*
X228308814Y-106322052D01*
X228301833Y-106305379D01*
X228293167Y-106279843D01*
X228286072Y-106253993D01*
X228282151Y-106235002D01*
X228279942Y-106207705D01*
X228284632Y-106187450D01*
X228296972Y-106171986D01*
X228317711Y-106159060D01*
X228345870Y-106145190D01*
X228671968Y-106143492D01*
X228717503Y-106143268D01*
X228786913Y-106143017D01*
X228845968Y-106142989D01*
X228895710Y-106143245D01*
G37*
G36*
X226166890Y-100461583D02*
G01*
X226224743Y-100461901D01*
X226276451Y-100462399D01*
X226320551Y-100463078D01*
X226355578Y-100463938D01*
X226380070Y-100464978D01*
X226442429Y-100468743D01*
X226493135Y-100576752D01*
X226510273Y-100613261D01*
X226544545Y-100686289D01*
X226578681Y-100759058D01*
X226612944Y-100832124D01*
X226647591Y-100906044D01*
X226682885Y-100981376D01*
X226719086Y-101058675D01*
X226756453Y-101138498D01*
X226795246Y-101221403D01*
X226835727Y-101307946D01*
X226878156Y-101398685D01*
X226922792Y-101494175D01*
X226969897Y-101594974D01*
X227019729Y-101701638D01*
X227072551Y-101814725D01*
X227128622Y-101934791D01*
X227188202Y-102062392D01*
X227251551Y-102198087D01*
X227318931Y-102342431D01*
X227390600Y-102495982D01*
X227466821Y-102659296D01*
X227547852Y-102832929D01*
X227563686Y-102866860D01*
X227641188Y-103032937D01*
X227713819Y-103188567D01*
X227781746Y-103334107D01*
X227845141Y-103469914D01*
X227904172Y-103596345D01*
X227959010Y-103713758D01*
X228009825Y-103822508D01*
X228056785Y-103922954D01*
X228100062Y-104015453D01*
X228139825Y-104100362D01*
X228176243Y-104178038D01*
X228209486Y-104248838D01*
X228239725Y-104313119D01*
X228267128Y-104371238D01*
X228291866Y-104423553D01*
X228314109Y-104470421D01*
X228334026Y-104512199D01*
X228351787Y-104549243D01*
X228367562Y-104581912D01*
X228381521Y-104610562D01*
X228393832Y-104635551D01*
X228404668Y-104657235D01*
X228414196Y-104675972D01*
X228422586Y-104692119D01*
X228430010Y-104706033D01*
X228436636Y-104718071D01*
X228442633Y-104728590D01*
X228448173Y-104737948D01*
X228453425Y-104746502D01*
X228458557Y-104754608D01*
X228463742Y-104762624D01*
X228469147Y-104770908D01*
X228476864Y-104782509D01*
X228508584Y-104825123D01*
X228542151Y-104861156D01*
X228580061Y-104892755D01*
X228624810Y-104922064D01*
X228678896Y-104951232D01*
X228705800Y-104964433D01*
X228733873Y-104977278D01*
X228760591Y-104988036D01*
X228787289Y-104996910D01*
X228815303Y-105004103D01*
X228845969Y-105009817D01*
X228880622Y-105014257D01*
X228920597Y-105017625D01*
X228967231Y-105020123D01*
X229021859Y-105021956D01*
X229085817Y-105023325D01*
X229160439Y-105024435D01*
X229404964Y-105027621D01*
X229390620Y-104995359D01*
X229390129Y-104994258D01*
X229381183Y-104974388D01*
X229367462Y-104944203D01*
X229349214Y-104904237D01*
X229326685Y-104855026D01*
X229300121Y-104797102D01*
X229269770Y-104731001D01*
X229235876Y-104657257D01*
X229198688Y-104576405D01*
X229158451Y-104488980D01*
X229115412Y-104395515D01*
X229069817Y-104296546D01*
X229021913Y-104192606D01*
X228971946Y-104084231D01*
X228920163Y-103971954D01*
X228866811Y-103856311D01*
X228812135Y-103737836D01*
X228756382Y-103617063D01*
X228699799Y-103494526D01*
X228642631Y-103370762D01*
X228585127Y-103246303D01*
X228527531Y-103121684D01*
X228470092Y-102997440D01*
X228413054Y-102874106D01*
X228356664Y-102752216D01*
X228301170Y-102632303D01*
X228246817Y-102514904D01*
X228191219Y-102394830D01*
X228107419Y-102213803D01*
X228028509Y-102043278D01*
X227954384Y-101883026D01*
X227884937Y-101732815D01*
X227820062Y-101592414D01*
X227759653Y-101461591D01*
X227703605Y-101340116D01*
X227651811Y-101227757D01*
X227604166Y-101124283D01*
X227560563Y-101029464D01*
X227520896Y-100943067D01*
X227485060Y-100864862D01*
X227452949Y-100794618D01*
X227424455Y-100732104D01*
X227399475Y-100677088D01*
X227377901Y-100629339D01*
X227359627Y-100588627D01*
X227344548Y-100554720D01*
X227332558Y-100527386D01*
X227323550Y-100506396D01*
X227317419Y-100491517D01*
X227314058Y-100482519D01*
X227313362Y-100479170D01*
X227314310Y-100478884D01*
X227324733Y-100478004D01*
X227345653Y-100477101D01*
X227375945Y-100476183D01*
X227414484Y-100475264D01*
X227460145Y-100474353D01*
X227511804Y-100473462D01*
X227568336Y-100472602D01*
X227628616Y-100471783D01*
X227691519Y-100471018D01*
X227755920Y-100470317D01*
X227820695Y-100469692D01*
X227884719Y-100469152D01*
X227946867Y-100468711D01*
X228006014Y-100468377D01*
X228061035Y-100468164D01*
X228110806Y-100468081D01*
X228154201Y-100468140D01*
X228190096Y-100468352D01*
X228217367Y-100468728D01*
X228234888Y-100469279D01*
X228241534Y-100470016D01*
X228242213Y-100471228D01*
X228247294Y-100481623D01*
X228257085Y-100502214D01*
X228271357Y-100532513D01*
X228289884Y-100572030D01*
X228312439Y-100620277D01*
X228338793Y-100676764D01*
X228368720Y-100741004D01*
X228401993Y-100812507D01*
X228438384Y-100890784D01*
X228477665Y-100975346D01*
X228519610Y-101065705D01*
X228563991Y-101161372D01*
X228610582Y-101261858D01*
X228659153Y-101366674D01*
X228709479Y-101475331D01*
X228761332Y-101587341D01*
X228814485Y-101702214D01*
X228832754Y-101741706D01*
X228891570Y-101868842D01*
X228951771Y-101998963D01*
X229012928Y-102131144D01*
X229074614Y-102264459D01*
X229136401Y-102397984D01*
X229197859Y-102530793D01*
X229258562Y-102661962D01*
X229318080Y-102790564D01*
X229375986Y-102915676D01*
X229431851Y-103036371D01*
X229485248Y-103151724D01*
X229535748Y-103260811D01*
X229582923Y-103362707D01*
X229626344Y-103456485D01*
X229665584Y-103541222D01*
X229700215Y-103615991D01*
X229746500Y-103715942D01*
X229810695Y-103854681D01*
X229870100Y-103983217D01*
X229924893Y-104101948D01*
X229975253Y-104211271D01*
X230021360Y-104311584D01*
X230063391Y-104403282D01*
X230101526Y-104486763D01*
X230135944Y-104562423D01*
X230166823Y-104630661D01*
X230194343Y-104691872D01*
X230218683Y-104746454D01*
X230240021Y-104794804D01*
X230258536Y-104837318D01*
X230274407Y-104874394D01*
X230287813Y-104906428D01*
X230298933Y-104933818D01*
X230307946Y-104956960D01*
X230315030Y-104976252D01*
X230320366Y-104992090D01*
X230320706Y-104993170D01*
X230330287Y-105031050D01*
X230337599Y-105076733D01*
X230342738Y-105131231D01*
X230345802Y-105195556D01*
X230346885Y-105270721D01*
X230347027Y-105362328D01*
X230313225Y-105429734D01*
X230311391Y-105433384D01*
X230287100Y-105479593D01*
X230264561Y-105517608D01*
X230241739Y-105550366D01*
X230216600Y-105580804D01*
X230187109Y-105611860D01*
X230123940Y-105668367D01*
X230052202Y-105719004D01*
X229973084Y-105762180D01*
X229885838Y-105798251D01*
X229789717Y-105827571D01*
X229683975Y-105850494D01*
X229677644Y-105851470D01*
X229651778Y-105853940D01*
X229615857Y-105855893D01*
X229571317Y-105857349D01*
X229519595Y-105858327D01*
X229462128Y-105858845D01*
X229400354Y-105858923D01*
X229335709Y-105858579D01*
X229269630Y-105857832D01*
X229203555Y-105856702D01*
X229138920Y-105855207D01*
X229077163Y-105853366D01*
X229019720Y-105851199D01*
X228968029Y-105848724D01*
X228923526Y-105845960D01*
X228887650Y-105842926D01*
X228861835Y-105839641D01*
X228854139Y-105838326D01*
X228768442Y-105820708D01*
X228676988Y-105797002D01*
X228583256Y-105768269D01*
X228490725Y-105735566D01*
X228402874Y-105699953D01*
X228308045Y-105655315D01*
X228185435Y-105586611D01*
X228070584Y-105508976D01*
X227963763Y-105422632D01*
X227865239Y-105327800D01*
X227775281Y-105224704D01*
X227694157Y-105113565D01*
X227693119Y-105112008D01*
X227687957Y-105104304D01*
X227683074Y-105097022D01*
X227678332Y-105089874D01*
X227673593Y-105082570D01*
X227668721Y-105074820D01*
X227663578Y-105066335D01*
X227658027Y-105056824D01*
X227651930Y-105045998D01*
X227645151Y-105033568D01*
X227637551Y-105019243D01*
X227628994Y-105002735D01*
X227619342Y-104983753D01*
X227608459Y-104962007D01*
X227596205Y-104937209D01*
X227582445Y-104909068D01*
X227567041Y-104877295D01*
X227549856Y-104841599D01*
X227530752Y-104801692D01*
X227509592Y-104757284D01*
X227486239Y-104708085D01*
X227460555Y-104653805D01*
X227432404Y-104594154D01*
X227401647Y-104528844D01*
X227368147Y-104457584D01*
X227331768Y-104380084D01*
X227292372Y-104296056D01*
X227249821Y-104205208D01*
X227203978Y-104107253D01*
X227154707Y-104001899D01*
X227101869Y-103888857D01*
X227045327Y-103767838D01*
X226984944Y-103638552D01*
X226920583Y-103500709D01*
X226852106Y-103354020D01*
X226779376Y-103198194D01*
X226702256Y-103032943D01*
X226620608Y-102857976D01*
X226534296Y-102673004D01*
X226443181Y-102477737D01*
X226347126Y-102271885D01*
X225505736Y-100468743D01*
X225677704Y-100465077D01*
X225712799Y-100464391D01*
X225772686Y-100463452D01*
X225836674Y-100462692D01*
X225903298Y-100462111D01*
X225971096Y-100461709D01*
X226038602Y-100461487D01*
X226104355Y-100461445D01*
X226166890Y-100461583D01*
G37*
G36*
X230492659Y-100462580D02*
G01*
X230554939Y-100463193D01*
X230615207Y-100464316D01*
X230671510Y-100465938D01*
X230721890Y-100468049D01*
X230764393Y-100470640D01*
X230797063Y-100473700D01*
X230904440Y-100489161D01*
X231053230Y-100519311D01*
X231195410Y-100558913D01*
X231331697Y-100608176D01*
X231462809Y-100667308D01*
X231511410Y-100692245D01*
X231593506Y-100738514D01*
X231669011Y-100787266D01*
X231740853Y-100840597D01*
X231811956Y-100900597D01*
X231885250Y-100969359D01*
X231918737Y-101002629D01*
X231958723Y-101044185D01*
X231992992Y-101082562D01*
X232023664Y-101120278D01*
X232052860Y-101159852D01*
X232082701Y-101203801D01*
X232096259Y-101225709D01*
X232116581Y-101261387D01*
X232141248Y-101307064D01*
X232169995Y-101362207D01*
X232202558Y-101426279D01*
X232238674Y-101498745D01*
X232278077Y-101579072D01*
X232320505Y-101666722D01*
X232365692Y-101761163D01*
X232413375Y-101861857D01*
X232463290Y-101968271D01*
X232515172Y-102079870D01*
X232533564Y-102119594D01*
X232557588Y-102171458D01*
X232581790Y-102223677D01*
X232606346Y-102276627D01*
X232631431Y-102330683D01*
X232657219Y-102386220D01*
X232683886Y-102443615D01*
X232711608Y-102503243D01*
X232740559Y-102565479D01*
X232770915Y-102630699D01*
X232802850Y-102699279D01*
X232836541Y-102771594D01*
X232872162Y-102848020D01*
X232909889Y-102928931D01*
X232949896Y-103014705D01*
X232992359Y-103105716D01*
X233037453Y-103202340D01*
X233085354Y-103304952D01*
X233136236Y-103413929D01*
X233190275Y-103529645D01*
X233247646Y-103652477D01*
X233308524Y-103782799D01*
X233373084Y-103920987D01*
X233441502Y-104067417D01*
X233513953Y-104222465D01*
X233590611Y-104386506D01*
X233671653Y-104559916D01*
X233757253Y-104743069D01*
X233847587Y-104936342D01*
X233942830Y-105140111D01*
X233961733Y-105180557D01*
X234008015Y-105279638D01*
X234049524Y-105368602D01*
X234086504Y-105447987D01*
X234119195Y-105518331D01*
X234147840Y-105580174D01*
X234172681Y-105634053D01*
X234193959Y-105680508D01*
X234211916Y-105720075D01*
X234226794Y-105753295D01*
X234238835Y-105780705D01*
X234248280Y-105802844D01*
X234255373Y-105820251D01*
X234260354Y-105833463D01*
X234263465Y-105843020D01*
X234264949Y-105849459D01*
X234265047Y-105853320D01*
X234264001Y-105855141D01*
X234263705Y-105855252D01*
X234254996Y-105856003D01*
X234235357Y-105856680D01*
X234205729Y-105857276D01*
X234167050Y-105857784D01*
X234120261Y-105858197D01*
X234066299Y-105858509D01*
X234006105Y-105858711D01*
X233940618Y-105858798D01*
X233870776Y-105858763D01*
X233797520Y-105858597D01*
X233338705Y-105857167D01*
X232896168Y-104909093D01*
X232869123Y-104851154D01*
X232773997Y-104647380D01*
X232683695Y-104453970D01*
X232598027Y-104270518D01*
X232516805Y-104096622D01*
X232439839Y-103931876D01*
X232366938Y-103775876D01*
X232297914Y-103628219D01*
X232232577Y-103488498D01*
X232170737Y-103356311D01*
X232112205Y-103231252D01*
X232056791Y-103112918D01*
X232004305Y-103000904D01*
X231954559Y-102894806D01*
X231907362Y-102794218D01*
X231862525Y-102698738D01*
X231819858Y-102607961D01*
X231779172Y-102521481D01*
X231740277Y-102438896D01*
X231702983Y-102359800D01*
X231667101Y-102283789D01*
X231632442Y-102210459D01*
X231598816Y-102139405D01*
X231566033Y-102070223D01*
X231533903Y-102002509D01*
X231502238Y-101935859D01*
X231497378Y-101925636D01*
X231462240Y-101851791D01*
X231431722Y-101787853D01*
X231405375Y-101732985D01*
X231382751Y-101686350D01*
X231363401Y-101647110D01*
X231346876Y-101614429D01*
X231332728Y-101587469D01*
X231320507Y-101565394D01*
X231309767Y-101547366D01*
X231300057Y-101532549D01*
X231290929Y-101520105D01*
X231281935Y-101509198D01*
X231272626Y-101498989D01*
X231262553Y-101488643D01*
X231241062Y-101467921D01*
X231196197Y-101430903D01*
X231146673Y-101398587D01*
X231088821Y-101368435D01*
X231062915Y-101356630D01*
X231033415Y-101344645D01*
X231003911Y-101334656D01*
X230972902Y-101326416D01*
X230938890Y-101319679D01*
X230900374Y-101314200D01*
X230855855Y-101309733D01*
X230803834Y-101306031D01*
X230742810Y-101302848D01*
X230671286Y-101299939D01*
X230619056Y-101298297D01*
X230564956Y-101297238D01*
X230515776Y-101296947D01*
X230472930Y-101297407D01*
X230437828Y-101298603D01*
X230411883Y-101300517D01*
X230396508Y-101303134D01*
X230393196Y-101305811D01*
X230393357Y-101314431D01*
X230398939Y-101331132D01*
X230407522Y-101352434D01*
X230420424Y-101382952D01*
X230437320Y-101421802D01*
X230458326Y-101469236D01*
X230483555Y-101525504D01*
X230513120Y-101590859D01*
X230547137Y-101665551D01*
X230585720Y-101749833D01*
X230628982Y-101843955D01*
X230677038Y-101948169D01*
X230730002Y-102062726D01*
X230787988Y-102187879D01*
X230789866Y-102191927D01*
X230841438Y-102303159D01*
X230895830Y-102420512D01*
X230952768Y-102543401D01*
X231011982Y-102671238D01*
X231073202Y-102803436D01*
X231136155Y-102939410D01*
X231200571Y-103078573D01*
X231266179Y-103220338D01*
X231332707Y-103364118D01*
X231399885Y-103509328D01*
X231467441Y-103655379D01*
X231535104Y-103801687D01*
X231602603Y-103947663D01*
X231669667Y-104092723D01*
X231736024Y-104236278D01*
X231801404Y-104377742D01*
X231865536Y-104516530D01*
X231928148Y-104652053D01*
X231988969Y-104783727D01*
X232047729Y-104910963D01*
X232104155Y-105033176D01*
X232157978Y-105149779D01*
X232208925Y-105260185D01*
X232256725Y-105363807D01*
X232301109Y-105460060D01*
X232341803Y-105548357D01*
X232378538Y-105628110D01*
X232411042Y-105698734D01*
X232439044Y-105759642D01*
X232462273Y-105810247D01*
X232464742Y-105815720D01*
X232472939Y-105835468D01*
X232477894Y-105850090D01*
X232478612Y-105856751D01*
X232478259Y-105856861D01*
X232469557Y-105857398D01*
X232449963Y-105857907D01*
X232420400Y-105858382D01*
X232381792Y-105858815D01*
X232335062Y-105859200D01*
X232281133Y-105859531D01*
X232220928Y-105859799D01*
X232155371Y-105859999D01*
X232085385Y-105860125D01*
X232011893Y-105860168D01*
X231970287Y-105860160D01*
X231886137Y-105860085D01*
X231813028Y-105859920D01*
X231750296Y-105859655D01*
X231697279Y-105859280D01*
X231653315Y-105858783D01*
X231617741Y-105858155D01*
X231589893Y-105857384D01*
X231569111Y-105856461D01*
X231554730Y-105855374D01*
X231546089Y-105854113D01*
X231542524Y-105852667D01*
X231541852Y-105851543D01*
X231538198Y-105844331D01*
X231531468Y-105830433D01*
X231521575Y-105809655D01*
X231508429Y-105781808D01*
X231491941Y-105746700D01*
X231472023Y-105704140D01*
X231448586Y-105653936D01*
X231421541Y-105595897D01*
X231390799Y-105529831D01*
X231356271Y-105455548D01*
X231317869Y-105372856D01*
X231275504Y-105281563D01*
X231229087Y-105181479D01*
X231178529Y-105072411D01*
X231123741Y-104954169D01*
X231064635Y-104826562D01*
X231001122Y-104689397D01*
X230933113Y-104542484D01*
X230860519Y-104385631D01*
X230783251Y-104218647D01*
X230701221Y-104041340D01*
X230614340Y-103853520D01*
X230522518Y-103654994D01*
X230513389Y-103635255D01*
X230466011Y-103532813D01*
X230418543Y-103430179D01*
X230371380Y-103328204D01*
X230324917Y-103227741D01*
X230279547Y-103129644D01*
X230235666Y-103034765D01*
X230193667Y-102943956D01*
X230153945Y-102858071D01*
X230116895Y-102777962D01*
X230082910Y-102704481D01*
X230052385Y-102638483D01*
X230025715Y-102580818D01*
X230003294Y-102532340D01*
X229985516Y-102493903D01*
X229977649Y-102476891D01*
X229914683Y-102340525D01*
X229856669Y-102214477D01*
X229803410Y-102098290D01*
X229754708Y-101991509D01*
X229710365Y-101893678D01*
X229670183Y-101804341D01*
X229633963Y-101723041D01*
X229601508Y-101649323D01*
X229572620Y-101582731D01*
X229547100Y-101522808D01*
X229524751Y-101469100D01*
X229505375Y-101421149D01*
X229488774Y-101378500D01*
X229474750Y-101340697D01*
X229463104Y-101307285D01*
X229453639Y-101277806D01*
X229446156Y-101251805D01*
X229438006Y-101211043D01*
X229432963Y-101162745D01*
X229431196Y-101111202D01*
X229432712Y-101060107D01*
X229437518Y-101013159D01*
X229445622Y-100974052D01*
X229458820Y-100933275D01*
X229489056Y-100864310D01*
X229528356Y-100800120D01*
X229577699Y-100739209D01*
X229638061Y-100680086D01*
X229661782Y-100659962D01*
X229728498Y-100612065D01*
X229802240Y-100571076D01*
X229883736Y-100536716D01*
X229973712Y-100508704D01*
X230072895Y-100486760D01*
X230182014Y-100470605D01*
X230186260Y-100470134D01*
X230219539Y-100467488D01*
X230262541Y-100465409D01*
X230313310Y-100463889D01*
X230369889Y-100462918D01*
X230430324Y-100462484D01*
X230492659Y-100462580D01*
G37*
%TD*%
M02*
