%TF.GenerationSoftware,KiCad,Pcbnew,7.0.5*%
%TF.CreationDate,2023-06-11T14:56:47+10:00*%
%TF.ProjectId,Servo Controller 555,53657276-6f20-4436-9f6e-74726f6c6c65,rev?*%
%TF.SameCoordinates,Original*%
%TF.FileFunction,Soldermask,Bot*%
%TF.FilePolarity,Negative*%
%FSLAX46Y46*%
G04 Gerber Fmt 4.6, Leading zero omitted, Abs format (unit mm)*
G04 Created by KiCad (PCBNEW 7.0.5) date 2023-06-11 14:56:47*
%MOMM*%
%LPD*%
G01*
G04 APERTURE LIST*
%ADD10C,2.000000*%
%ADD11C,3.200000*%
%ADD12R,2.600000X2.600000*%
%ADD13C,2.600000*%
%ADD14R,1.800000X1.800000*%
%ADD15C,1.800000*%
%ADD16C,1.600000*%
%ADD17C,1.400000*%
%ADD18O,1.400000X1.400000*%
%ADD19R,1.600000X1.600000*%
%ADD20O,1.600000X1.600000*%
%ADD21R,1.700000X1.700000*%
%ADD22O,1.700000X1.700000*%
%ADD23C,4.000000*%
G04 APERTURE END LIST*
D10*
%TO.C,TP5*%
X242705000Y-94840000D03*
%TD*%
%TO.C,TP4*%
X235720000Y-94840000D03*
%TD*%
%TO.C,TP3*%
X197620000Y-107540000D03*
%TD*%
%TO.C,TP2*%
X212090000Y-84836000D03*
%TD*%
%TO.C,TP1*%
X197620000Y-99920000D03*
%TD*%
D11*
%TO.C,REF\u002A\u002A*%
X240000000Y-65000000D03*
%TD*%
D12*
%TO.C,J2*%
X190000000Y-82500000D03*
D13*
X190000000Y-87500000D03*
%TD*%
D14*
%TO.C,D4*%
X202747500Y-73000000D03*
D15*
X205287500Y-73000000D03*
%TD*%
D16*
%TO.C,C2*%
X227106000Y-94624000D03*
X229606000Y-94624000D03*
%TD*%
D17*
%TO.C,R2*%
X220438000Y-72898000D03*
D18*
X228058000Y-72898000D03*
%TD*%
D11*
%TO.C,REF\u002A\u002A*%
X190000000Y-65000000D03*
%TD*%
D17*
%TO.C,R1*%
X228166000Y-75624000D03*
D18*
X220546000Y-75624000D03*
%TD*%
D19*
%TO.C,U1*%
X232156000Y-90424000D03*
D20*
X232156000Y-87884000D03*
X232156000Y-85344000D03*
X232156000Y-82804000D03*
X224536000Y-82804000D03*
X224536000Y-85344000D03*
X224536000Y-87884000D03*
X224536000Y-90424000D03*
%TD*%
D21*
%TO.C,J1*%
X243078000Y-80460000D03*
D22*
X243078000Y-83000000D03*
X243078000Y-85540000D03*
%TD*%
D11*
%TO.C,REF\u002A\u002A*%
X240000000Y-105000000D03*
%TD*%
D17*
%TO.C,R4*%
X198628000Y-69342000D03*
D18*
X198628000Y-76962000D03*
%TD*%
D23*
%TO.C,RV1*%
X210600000Y-100950000D03*
X219400000Y-100950000D03*
D15*
X217500000Y-107950000D03*
X215000000Y-107950000D03*
X212500000Y-107950000D03*
%TD*%
D16*
%TO.C,C1*%
X235356000Y-87924000D03*
X235356000Y-90424000D03*
%TD*%
D11*
%TO.C,REF\u002A\u002A*%
X190000000Y-105000000D03*
%TD*%
D19*
%TO.C,D1*%
X220546000Y-78624000D03*
D20*
X228166000Y-78624000D03*
%TD*%
M02*
