%TF.GenerationSoftware,KiCad,Pcbnew,7.0.5*%
%TF.CreationDate,2023-06-11T14:56:47+10:00*%
%TF.ProjectId,Servo Controller 555,53657276-6f20-4436-9f6e-74726f6c6c65,rev?*%
%TF.SameCoordinates,Original*%
%TF.FileFunction,Legend,Top*%
%TF.FilePolarity,Positive*%
%FSLAX46Y46*%
G04 Gerber Fmt 4.6, Leading zero omitted, Abs format (unit mm)*
G04 Created by KiCad (PCBNEW 7.0.5) date 2023-06-11 14:56:47*
%MOMM*%
%LPD*%
G01*
G04 APERTURE LIST*
%ADD10C,0.250000*%
%ADD11C,0.150000*%
%ADD12C,0.300000*%
%ADD13C,0.200000*%
%ADD14C,0.120000*%
G04 APERTURE END LIST*
D10*
X212251973Y-93579857D02*
X212966259Y-93579857D01*
X212109116Y-94008428D02*
X212609116Y-92508428D01*
X212609116Y-92508428D02*
X213109116Y-94008428D01*
X213609115Y-93008428D02*
X213609115Y-94008428D01*
X213609115Y-93151285D02*
X213680544Y-93079857D01*
X213680544Y-93079857D02*
X213823401Y-93008428D01*
X213823401Y-93008428D02*
X214037687Y-93008428D01*
X214037687Y-93008428D02*
X214180544Y-93079857D01*
X214180544Y-93079857D02*
X214251973Y-93222714D01*
X214251973Y-93222714D02*
X214251973Y-94008428D01*
X215609116Y-93008428D02*
X215609116Y-94222714D01*
X215609116Y-94222714D02*
X215537687Y-94365571D01*
X215537687Y-94365571D02*
X215466258Y-94437000D01*
X215466258Y-94437000D02*
X215323401Y-94508428D01*
X215323401Y-94508428D02*
X215109116Y-94508428D01*
X215109116Y-94508428D02*
X214966258Y-94437000D01*
X215609116Y-93937000D02*
X215466258Y-94008428D01*
X215466258Y-94008428D02*
X215180544Y-94008428D01*
X215180544Y-94008428D02*
X215037687Y-93937000D01*
X215037687Y-93937000D02*
X214966258Y-93865571D01*
X214966258Y-93865571D02*
X214894830Y-93722714D01*
X214894830Y-93722714D02*
X214894830Y-93294142D01*
X214894830Y-93294142D02*
X214966258Y-93151285D01*
X214966258Y-93151285D02*
X215037687Y-93079857D01*
X215037687Y-93079857D02*
X215180544Y-93008428D01*
X215180544Y-93008428D02*
X215466258Y-93008428D01*
X215466258Y-93008428D02*
X215609116Y-93079857D01*
X216537687Y-94008428D02*
X216394830Y-93937000D01*
X216394830Y-93937000D02*
X216323401Y-93794142D01*
X216323401Y-93794142D02*
X216323401Y-92508428D01*
X217680544Y-93937000D02*
X217537687Y-94008428D01*
X217537687Y-94008428D02*
X217251973Y-94008428D01*
X217251973Y-94008428D02*
X217109115Y-93937000D01*
X217109115Y-93937000D02*
X217037687Y-93794142D01*
X217037687Y-93794142D02*
X217037687Y-93222714D01*
X217037687Y-93222714D02*
X217109115Y-93079857D01*
X217109115Y-93079857D02*
X217251973Y-93008428D01*
X217251973Y-93008428D02*
X217537687Y-93008428D01*
X217537687Y-93008428D02*
X217680544Y-93079857D01*
X217680544Y-93079857D02*
X217751973Y-93222714D01*
X217751973Y-93222714D02*
X217751973Y-93365571D01*
X217751973Y-93365571D02*
X217037687Y-93508428D01*
X240067425Y-80461666D02*
X241286473Y-80461666D01*
D11*
G36*
X206001667Y-69455857D02*
G01*
X202043334Y-69455857D01*
X202043334Y-68587990D01*
X202670600Y-68587990D01*
X202688896Y-68628054D01*
X202725948Y-68651866D01*
X203053922Y-68651866D01*
X203053922Y-68968601D01*
X203063165Y-69000079D01*
X203096451Y-69028921D01*
X203140046Y-69035189D01*
X203180110Y-69016893D01*
X203203922Y-68979841D01*
X203203922Y-68857003D01*
X203860479Y-68857003D01*
X203869841Y-68900040D01*
X203926382Y-68956583D01*
X203932827Y-68967434D01*
X203951338Y-68976689D01*
X203969449Y-68986579D01*
X203970908Y-68986474D01*
X204044154Y-69023097D01*
X204059281Y-69032819D01*
X204074611Y-69032819D01*
X204089694Y-69035533D01*
X204096238Y-69032819D01*
X204315358Y-69032819D01*
X204333242Y-69034750D01*
X204346955Y-69027893D01*
X204361658Y-69023576D01*
X204366296Y-69018222D01*
X204439764Y-68981487D01*
X204452098Y-68978805D01*
X204466729Y-68964172D01*
X204481842Y-68950116D01*
X204482204Y-68948696D01*
X204508638Y-68922262D01*
X204519489Y-68915818D01*
X204528745Y-68897304D01*
X204538635Y-68879194D01*
X204538530Y-68877734D01*
X204575152Y-68804490D01*
X204584874Y-68789364D01*
X204584873Y-68774034D01*
X204587588Y-68758951D01*
X204584874Y-68752407D01*
X204584874Y-68533277D01*
X204586804Y-68515403D01*
X204579949Y-68501693D01*
X204575631Y-68486987D01*
X204570276Y-68482347D01*
X204533542Y-68408878D01*
X204530860Y-68396548D01*
X204516240Y-68381928D01*
X204502171Y-68366803D01*
X204500752Y-68366440D01*
X204474317Y-68340005D01*
X204467874Y-68329156D01*
X204449373Y-68319905D01*
X204431251Y-68310010D01*
X204429790Y-68310114D01*
X204356549Y-68273494D01*
X204341420Y-68263771D01*
X204326090Y-68263771D01*
X204311007Y-68261057D01*
X204304463Y-68263771D01*
X204085334Y-68263771D01*
X204067459Y-68261841D01*
X204053749Y-68268695D01*
X204039043Y-68273014D01*
X204034403Y-68278368D01*
X204029120Y-68281010D01*
X204053939Y-68032819D01*
X204473037Y-68032819D01*
X204504515Y-68023576D01*
X204533357Y-67990290D01*
X204537619Y-67960644D01*
X204717474Y-67960644D01*
X205053481Y-68968668D01*
X205053176Y-68977116D01*
X205060308Y-68989149D01*
X205061180Y-68991764D01*
X205065788Y-68998395D01*
X205075633Y-69015004D01*
X205078239Y-69016310D01*
X205079903Y-69018704D01*
X205097745Y-69026084D01*
X205115009Y-69034736D01*
X205117908Y-69034425D01*
X205120602Y-69035540D01*
X205139589Y-69032105D01*
X205158802Y-69030049D01*
X205161075Y-69028218D01*
X205163942Y-69027700D01*
X205178060Y-69014543D01*
X205193109Y-69002428D01*
X205194031Y-68999661D01*
X205196164Y-68997674D01*
X205200930Y-68978963D01*
X205536816Y-67971308D01*
X205538001Y-67938522D01*
X205515544Y-67900634D01*
X205476168Y-67880902D01*
X205432374Y-67885590D01*
X205398068Y-67913210D01*
X205128922Y-68720647D01*
X204863331Y-67923873D01*
X204844608Y-67896933D01*
X204803909Y-67880097D01*
X204760569Y-67887937D01*
X204728347Y-67917964D01*
X204717474Y-67960644D01*
X204537619Y-67960644D01*
X204539625Y-67946695D01*
X204521329Y-67906631D01*
X204484277Y-67882819D01*
X203995200Y-67882819D01*
X203982695Y-67879726D01*
X203963383Y-67886312D01*
X203943805Y-67892062D01*
X203942661Y-67893381D01*
X203941009Y-67893945D01*
X203928317Y-67909936D01*
X203914963Y-67925348D01*
X203914714Y-67927074D01*
X203913628Y-67928444D01*
X203911595Y-67948770D01*
X203908695Y-67968943D01*
X203909419Y-67970529D01*
X203865331Y-68411414D01*
X203862066Y-68417394D01*
X203863178Y-68432941D01*
X203862745Y-68437275D01*
X203863944Y-68443651D01*
X203865209Y-68461325D01*
X203867960Y-68465000D01*
X203868810Y-68469516D01*
X203880983Y-68482397D01*
X203891603Y-68496584D01*
X203895906Y-68498189D01*
X203899061Y-68501527D01*
X203916262Y-68505781D01*
X203932870Y-68511976D01*
X203937358Y-68510999D01*
X203941816Y-68512102D01*
X203958585Y-68506382D01*
X203975907Y-68502614D01*
X203979155Y-68499365D01*
X203983502Y-68497883D01*
X203994519Y-68484001D01*
X204030491Y-68448029D01*
X204099007Y-68413771D01*
X204301692Y-68413771D01*
X204370209Y-68448029D01*
X204400615Y-68478435D01*
X204434874Y-68546951D01*
X204434874Y-68749636D01*
X204400615Y-68818153D01*
X204370207Y-68848561D01*
X204301693Y-68882819D01*
X204099009Y-68882819D01*
X204030491Y-68848560D01*
X203983856Y-68801923D01*
X203955062Y-68786201D01*
X203911131Y-68789343D01*
X203875872Y-68815736D01*
X203860479Y-68857003D01*
X203203922Y-68857003D01*
X203203922Y-68651866D01*
X203520657Y-68651866D01*
X203552135Y-68642623D01*
X203580977Y-68609337D01*
X203587245Y-68565742D01*
X203568949Y-68525678D01*
X203531897Y-68501866D01*
X203203922Y-68501866D01*
X203203922Y-68185132D01*
X203194679Y-68153654D01*
X203161393Y-68124812D01*
X203117798Y-68118544D01*
X203077734Y-68136840D01*
X203053922Y-68173892D01*
X203053922Y-68501866D01*
X202737188Y-68501866D01*
X202705710Y-68511109D01*
X202676868Y-68544395D01*
X202670600Y-68587990D01*
X202043334Y-68587990D01*
X202043334Y-67345143D01*
X206001667Y-67345143D01*
X206001667Y-69455857D01*
G37*
D10*
X238429139Y-86301500D02*
X238629139Y-86368166D01*
X238629139Y-86368166D02*
X238962473Y-86368166D01*
X238962473Y-86368166D02*
X239095806Y-86301500D01*
X239095806Y-86301500D02*
X239162473Y-86234833D01*
X239162473Y-86234833D02*
X239229139Y-86101500D01*
X239229139Y-86101500D02*
X239229139Y-85968166D01*
X239229139Y-85968166D02*
X239162473Y-85834833D01*
X239162473Y-85834833D02*
X239095806Y-85768166D01*
X239095806Y-85768166D02*
X238962473Y-85701500D01*
X238962473Y-85701500D02*
X238695806Y-85634833D01*
X238695806Y-85634833D02*
X238562473Y-85568166D01*
X238562473Y-85568166D02*
X238495806Y-85501500D01*
X238495806Y-85501500D02*
X238429139Y-85368166D01*
X238429139Y-85368166D02*
X238429139Y-85234833D01*
X238429139Y-85234833D02*
X238495806Y-85101500D01*
X238495806Y-85101500D02*
X238562473Y-85034833D01*
X238562473Y-85034833D02*
X238695806Y-84968166D01*
X238695806Y-84968166D02*
X239029139Y-84968166D01*
X239029139Y-84968166D02*
X239229139Y-85034833D01*
X239829139Y-86368166D02*
X239829139Y-84968166D01*
X241229139Y-85034833D02*
X241095806Y-84968166D01*
X241095806Y-84968166D02*
X240895806Y-84968166D01*
X240895806Y-84968166D02*
X240695806Y-85034833D01*
X240695806Y-85034833D02*
X240562473Y-85168166D01*
X240562473Y-85168166D02*
X240495806Y-85301500D01*
X240495806Y-85301500D02*
X240429139Y-85568166D01*
X240429139Y-85568166D02*
X240429139Y-85768166D01*
X240429139Y-85768166D02*
X240495806Y-86034833D01*
X240495806Y-86034833D02*
X240562473Y-86168166D01*
X240562473Y-86168166D02*
X240695806Y-86301500D01*
X240695806Y-86301500D02*
X240895806Y-86368166D01*
X240895806Y-86368166D02*
X241029139Y-86368166D01*
X241029139Y-86368166D02*
X241229139Y-86301500D01*
X241229139Y-86301500D02*
X241295806Y-86234833D01*
X241295806Y-86234833D02*
X241295806Y-85768166D01*
X241295806Y-85768166D02*
X241029139Y-85768166D01*
X187643333Y-78015425D02*
X187643333Y-79234473D01*
D11*
G36*
X206472857Y-97395857D02*
G01*
X201562143Y-97395857D01*
X201562143Y-96527990D01*
X202189409Y-96527990D01*
X202207705Y-96568054D01*
X202244757Y-96591866D01*
X202572731Y-96591866D01*
X202572731Y-96908601D01*
X202581974Y-96940079D01*
X202615260Y-96968921D01*
X202658855Y-96975189D01*
X202698919Y-96956893D01*
X202722731Y-96919841D01*
X202722731Y-96591866D01*
X203039466Y-96591866D01*
X203070944Y-96582623D01*
X203099786Y-96549337D01*
X203106054Y-96505742D01*
X203087758Y-96465678D01*
X203050706Y-96441866D01*
X202722731Y-96441866D01*
X202722731Y-96186288D01*
X203379138Y-96186288D01*
X203393028Y-96228084D01*
X203427310Y-96255736D01*
X203471099Y-96260464D01*
X203577622Y-96207201D01*
X203589954Y-96204519D01*
X203604581Y-96189891D01*
X203619699Y-96175830D01*
X203620061Y-96174411D01*
X203667969Y-96126504D01*
X203667969Y-96822819D01*
X203446473Y-96822819D01*
X203414995Y-96832062D01*
X203386153Y-96865348D01*
X203379885Y-96908943D01*
X203398181Y-96949007D01*
X203435233Y-96972819D01*
X203737609Y-96972819D01*
X203754093Y-96975189D01*
X203759283Y-96972819D01*
X204039465Y-96972819D01*
X204070943Y-96963576D01*
X204099785Y-96930290D01*
X204102854Y-96908943D01*
X204284647Y-96908943D01*
X204288174Y-96916666D01*
X204288780Y-96925135D01*
X204297143Y-96936307D01*
X204302943Y-96949007D01*
X204310086Y-96953597D01*
X204315174Y-96960394D01*
X204328250Y-96965271D01*
X204339995Y-96972819D01*
X204348486Y-96972819D01*
X204356441Y-96975786D01*
X204370080Y-96972819D01*
X204991846Y-96972819D01*
X205023324Y-96963576D01*
X205052166Y-96930290D01*
X205058434Y-96886695D01*
X205040138Y-96846631D01*
X205003086Y-96822819D01*
X204543083Y-96822819D01*
X204983623Y-96382277D01*
X204997632Y-96370999D01*
X205002479Y-96356457D01*
X205009825Y-96343005D01*
X205009319Y-96335937D01*
X205049242Y-96216169D01*
X205056064Y-96205555D01*
X205056064Y-96184875D01*
X205056810Y-96164236D01*
X205056064Y-96162977D01*
X205056064Y-96092325D01*
X205057994Y-96074451D01*
X205051139Y-96060741D01*
X205046821Y-96046035D01*
X205041466Y-96041395D01*
X205004732Y-95967926D01*
X205002050Y-95955596D01*
X204987430Y-95940976D01*
X204973361Y-95925851D01*
X204971942Y-95925488D01*
X204947098Y-95900644D01*
X205188664Y-95900644D01*
X205524671Y-96908668D01*
X205524366Y-96917116D01*
X205531498Y-96929149D01*
X205532370Y-96931764D01*
X205536978Y-96938395D01*
X205546823Y-96955004D01*
X205549429Y-96956310D01*
X205551093Y-96958704D01*
X205568935Y-96966084D01*
X205586199Y-96974736D01*
X205589098Y-96974425D01*
X205591792Y-96975540D01*
X205610779Y-96972105D01*
X205629992Y-96970049D01*
X205632265Y-96968218D01*
X205635132Y-96967700D01*
X205649250Y-96954543D01*
X205664299Y-96942428D01*
X205665221Y-96939661D01*
X205667354Y-96937674D01*
X205672120Y-96918963D01*
X206008006Y-95911308D01*
X206009191Y-95878522D01*
X205986734Y-95840634D01*
X205947358Y-95820902D01*
X205903564Y-95825590D01*
X205869258Y-95853210D01*
X205600112Y-96660647D01*
X205334521Y-95863873D01*
X205315798Y-95836933D01*
X205275099Y-95820097D01*
X205231759Y-95827937D01*
X205199537Y-95857964D01*
X205188664Y-95900644D01*
X204947098Y-95900644D01*
X204945507Y-95899053D01*
X204939064Y-95888204D01*
X204920563Y-95878953D01*
X204902441Y-95869058D01*
X204900980Y-95869162D01*
X204827739Y-95832542D01*
X204812610Y-95822819D01*
X204797280Y-95822819D01*
X204782197Y-95820105D01*
X204775653Y-95822819D01*
X204556524Y-95822819D01*
X204538649Y-95820889D01*
X204524939Y-95827743D01*
X204510233Y-95832062D01*
X204505593Y-95837416D01*
X204432124Y-95874150D01*
X204419794Y-95876833D01*
X204405174Y-95891452D01*
X204390049Y-95905522D01*
X204389686Y-95906940D01*
X204348979Y-95947648D01*
X204333256Y-95976442D01*
X204336399Y-96020373D01*
X204362793Y-96055632D01*
X204404060Y-96071024D01*
X204447097Y-96061662D01*
X204501681Y-96007077D01*
X204570197Y-95972819D01*
X204772882Y-95972819D01*
X204841399Y-96007078D01*
X204871805Y-96037483D01*
X204906064Y-96105999D01*
X204906064Y-96171362D01*
X204867892Y-96285876D01*
X204322518Y-96831250D01*
X204319757Y-96832062D01*
X204307094Y-96846675D01*
X204301360Y-96852410D01*
X204300055Y-96854799D01*
X204290915Y-96865348D01*
X204289706Y-96873750D01*
X204285637Y-96881204D01*
X204286633Y-96895128D01*
X204284647Y-96908943D01*
X204102854Y-96908943D01*
X204106053Y-96886695D01*
X204087757Y-96846631D01*
X204050705Y-96822819D01*
X203817969Y-96822819D01*
X203817969Y-95909245D01*
X203821124Y-95899132D01*
X203817968Y-95887678D01*
X203817969Y-95887037D01*
X203815110Y-95877302D01*
X203809427Y-95856670D01*
X203808918Y-95856214D01*
X203808726Y-95855559D01*
X203792566Y-95841557D01*
X203776631Y-95827273D01*
X203775956Y-95827164D01*
X203775440Y-95826717D01*
X203754292Y-95823676D01*
X203733147Y-95820272D01*
X203732519Y-95820545D01*
X203731845Y-95820449D01*
X203712411Y-95829323D01*
X203692781Y-95837893D01*
X203692402Y-95838461D01*
X203691781Y-95838745D01*
X203680215Y-95856741D01*
X203589446Y-95992894D01*
X203508065Y-96074275D01*
X203414070Y-96121273D01*
X203390049Y-96143617D01*
X203379138Y-96186288D01*
X202722731Y-96186288D01*
X202722731Y-96125132D01*
X202713488Y-96093654D01*
X202680202Y-96064812D01*
X202636607Y-96058544D01*
X202596543Y-96076840D01*
X202572731Y-96113892D01*
X202572731Y-96441866D01*
X202255997Y-96441866D01*
X202224519Y-96451109D01*
X202195677Y-96484395D01*
X202189409Y-96527990D01*
X201562143Y-96527990D01*
X201562143Y-95285143D01*
X206472857Y-95285143D01*
X206472857Y-97395857D01*
G37*
D10*
X188218333Y-90605425D02*
X188218333Y-91824473D01*
X187608809Y-91214949D02*
X188827857Y-91214949D01*
D12*
X194610510Y-62538828D02*
X194610510Y-61038828D01*
X194610510Y-61038828D02*
X195467653Y-62538828D01*
X195467653Y-62538828D02*
X195467653Y-61038828D01*
X196181939Y-61038828D02*
X196181939Y-62253114D01*
X196181939Y-62253114D02*
X196253368Y-62395971D01*
X196253368Y-62395971D02*
X196324797Y-62467400D01*
X196324797Y-62467400D02*
X196467654Y-62538828D01*
X196467654Y-62538828D02*
X196753368Y-62538828D01*
X196753368Y-62538828D02*
X196896225Y-62467400D01*
X196896225Y-62467400D02*
X196967654Y-62395971D01*
X196967654Y-62395971D02*
X197039082Y-62253114D01*
X197039082Y-62253114D02*
X197039082Y-61038828D01*
X198681940Y-61038828D02*
X199539083Y-61038828D01*
X199110511Y-62538828D02*
X199110511Y-61038828D01*
X200610511Y-62467400D02*
X200467654Y-62538828D01*
X200467654Y-62538828D02*
X200181940Y-62538828D01*
X200181940Y-62538828D02*
X200039082Y-62467400D01*
X200039082Y-62467400D02*
X199967654Y-62324542D01*
X199967654Y-62324542D02*
X199967654Y-61753114D01*
X199967654Y-61753114D02*
X200039082Y-61610257D01*
X200039082Y-61610257D02*
X200181940Y-61538828D01*
X200181940Y-61538828D02*
X200467654Y-61538828D01*
X200467654Y-61538828D02*
X200610511Y-61610257D01*
X200610511Y-61610257D02*
X200681940Y-61753114D01*
X200681940Y-61753114D02*
X200681940Y-61895971D01*
X200681940Y-61895971D02*
X199967654Y-62038828D01*
X201967654Y-62538828D02*
X201967654Y-61753114D01*
X201967654Y-61753114D02*
X201896225Y-61610257D01*
X201896225Y-61610257D02*
X201753368Y-61538828D01*
X201753368Y-61538828D02*
X201467654Y-61538828D01*
X201467654Y-61538828D02*
X201324796Y-61610257D01*
X201967654Y-62467400D02*
X201824796Y-62538828D01*
X201824796Y-62538828D02*
X201467654Y-62538828D01*
X201467654Y-62538828D02*
X201324796Y-62467400D01*
X201324796Y-62467400D02*
X201253368Y-62324542D01*
X201253368Y-62324542D02*
X201253368Y-62181685D01*
X201253368Y-62181685D02*
X201324796Y-62038828D01*
X201324796Y-62038828D02*
X201467654Y-61967400D01*
X201467654Y-61967400D02*
X201824796Y-61967400D01*
X201824796Y-61967400D02*
X201967654Y-61895971D01*
X202681939Y-62538828D02*
X202681939Y-61538828D01*
X202681939Y-61681685D02*
X202753368Y-61610257D01*
X202753368Y-61610257D02*
X202896225Y-61538828D01*
X202896225Y-61538828D02*
X203110511Y-61538828D01*
X203110511Y-61538828D02*
X203253368Y-61610257D01*
X203253368Y-61610257D02*
X203324797Y-61753114D01*
X203324797Y-61753114D02*
X203324797Y-62538828D01*
X203324797Y-61753114D02*
X203396225Y-61610257D01*
X203396225Y-61610257D02*
X203539082Y-61538828D01*
X203539082Y-61538828D02*
X203753368Y-61538828D01*
X203753368Y-61538828D02*
X203896225Y-61610257D01*
X203896225Y-61610257D02*
X203967654Y-61753114D01*
X203967654Y-61753114D02*
X203967654Y-62538828D01*
X204610511Y-62467400D02*
X204753368Y-62538828D01*
X204753368Y-62538828D02*
X205039082Y-62538828D01*
X205039082Y-62538828D02*
X205181939Y-62467400D01*
X205181939Y-62467400D02*
X205253368Y-62324542D01*
X205253368Y-62324542D02*
X205253368Y-62253114D01*
X205253368Y-62253114D02*
X205181939Y-62110257D01*
X205181939Y-62110257D02*
X205039082Y-62038828D01*
X205039082Y-62038828D02*
X204824797Y-62038828D01*
X204824797Y-62038828D02*
X204681939Y-61967400D01*
X204681939Y-61967400D02*
X204610511Y-61824542D01*
X204610511Y-61824542D02*
X204610511Y-61753114D01*
X204610511Y-61753114D02*
X204681939Y-61610257D01*
X204681939Y-61610257D02*
X204824797Y-61538828D01*
X204824797Y-61538828D02*
X205039082Y-61538828D01*
X205039082Y-61538828D02*
X205181939Y-61610257D01*
X207753368Y-61038828D02*
X207039082Y-61038828D01*
X207039082Y-61038828D02*
X206967654Y-61753114D01*
X206967654Y-61753114D02*
X207039082Y-61681685D01*
X207039082Y-61681685D02*
X207181940Y-61610257D01*
X207181940Y-61610257D02*
X207539082Y-61610257D01*
X207539082Y-61610257D02*
X207681940Y-61681685D01*
X207681940Y-61681685D02*
X207753368Y-61753114D01*
X207753368Y-61753114D02*
X207824797Y-61895971D01*
X207824797Y-61895971D02*
X207824797Y-62253114D01*
X207824797Y-62253114D02*
X207753368Y-62395971D01*
X207753368Y-62395971D02*
X207681940Y-62467400D01*
X207681940Y-62467400D02*
X207539082Y-62538828D01*
X207539082Y-62538828D02*
X207181940Y-62538828D01*
X207181940Y-62538828D02*
X207039082Y-62467400D01*
X207039082Y-62467400D02*
X206967654Y-62395971D01*
X209181939Y-61038828D02*
X208467653Y-61038828D01*
X208467653Y-61038828D02*
X208396225Y-61753114D01*
X208396225Y-61753114D02*
X208467653Y-61681685D01*
X208467653Y-61681685D02*
X208610511Y-61610257D01*
X208610511Y-61610257D02*
X208967653Y-61610257D01*
X208967653Y-61610257D02*
X209110511Y-61681685D01*
X209110511Y-61681685D02*
X209181939Y-61753114D01*
X209181939Y-61753114D02*
X209253368Y-61895971D01*
X209253368Y-61895971D02*
X209253368Y-62253114D01*
X209253368Y-62253114D02*
X209181939Y-62395971D01*
X209181939Y-62395971D02*
X209110511Y-62467400D01*
X209110511Y-62467400D02*
X208967653Y-62538828D01*
X208967653Y-62538828D02*
X208610511Y-62538828D01*
X208610511Y-62538828D02*
X208467653Y-62467400D01*
X208467653Y-62467400D02*
X208396225Y-62395971D01*
X210610510Y-61038828D02*
X209896224Y-61038828D01*
X209896224Y-61038828D02*
X209824796Y-61753114D01*
X209824796Y-61753114D02*
X209896224Y-61681685D01*
X209896224Y-61681685D02*
X210039082Y-61610257D01*
X210039082Y-61610257D02*
X210396224Y-61610257D01*
X210396224Y-61610257D02*
X210539082Y-61681685D01*
X210539082Y-61681685D02*
X210610510Y-61753114D01*
X210610510Y-61753114D02*
X210681939Y-61895971D01*
X210681939Y-61895971D02*
X210681939Y-62253114D01*
X210681939Y-62253114D02*
X210610510Y-62395971D01*
X210610510Y-62395971D02*
X210539082Y-62467400D01*
X210539082Y-62467400D02*
X210396224Y-62538828D01*
X210396224Y-62538828D02*
X210039082Y-62538828D01*
X210039082Y-62538828D02*
X209896224Y-62467400D01*
X209896224Y-62467400D02*
X209824796Y-62395971D01*
X212396224Y-62467400D02*
X212610510Y-62538828D01*
X212610510Y-62538828D02*
X212967652Y-62538828D01*
X212967652Y-62538828D02*
X213110510Y-62467400D01*
X213110510Y-62467400D02*
X213181938Y-62395971D01*
X213181938Y-62395971D02*
X213253367Y-62253114D01*
X213253367Y-62253114D02*
X213253367Y-62110257D01*
X213253367Y-62110257D02*
X213181938Y-61967400D01*
X213181938Y-61967400D02*
X213110510Y-61895971D01*
X213110510Y-61895971D02*
X212967652Y-61824542D01*
X212967652Y-61824542D02*
X212681938Y-61753114D01*
X212681938Y-61753114D02*
X212539081Y-61681685D01*
X212539081Y-61681685D02*
X212467652Y-61610257D01*
X212467652Y-61610257D02*
X212396224Y-61467400D01*
X212396224Y-61467400D02*
X212396224Y-61324542D01*
X212396224Y-61324542D02*
X212467652Y-61181685D01*
X212467652Y-61181685D02*
X212539081Y-61110257D01*
X212539081Y-61110257D02*
X212681938Y-61038828D01*
X212681938Y-61038828D02*
X213039081Y-61038828D01*
X213039081Y-61038828D02*
X213253367Y-61110257D01*
X214467652Y-62467400D02*
X214324795Y-62538828D01*
X214324795Y-62538828D02*
X214039081Y-62538828D01*
X214039081Y-62538828D02*
X213896223Y-62467400D01*
X213896223Y-62467400D02*
X213824795Y-62324542D01*
X213824795Y-62324542D02*
X213824795Y-61753114D01*
X213824795Y-61753114D02*
X213896223Y-61610257D01*
X213896223Y-61610257D02*
X214039081Y-61538828D01*
X214039081Y-61538828D02*
X214324795Y-61538828D01*
X214324795Y-61538828D02*
X214467652Y-61610257D01*
X214467652Y-61610257D02*
X214539081Y-61753114D01*
X214539081Y-61753114D02*
X214539081Y-61895971D01*
X214539081Y-61895971D02*
X213824795Y-62038828D01*
X215181937Y-62538828D02*
X215181937Y-61538828D01*
X215181937Y-61824542D02*
X215253366Y-61681685D01*
X215253366Y-61681685D02*
X215324795Y-61610257D01*
X215324795Y-61610257D02*
X215467652Y-61538828D01*
X215467652Y-61538828D02*
X215610509Y-61538828D01*
X215967651Y-61538828D02*
X216324794Y-62538828D01*
X216324794Y-62538828D02*
X216681937Y-61538828D01*
X217467651Y-62538828D02*
X217324794Y-62467400D01*
X217324794Y-62467400D02*
X217253365Y-62395971D01*
X217253365Y-62395971D02*
X217181937Y-62253114D01*
X217181937Y-62253114D02*
X217181937Y-61824542D01*
X217181937Y-61824542D02*
X217253365Y-61681685D01*
X217253365Y-61681685D02*
X217324794Y-61610257D01*
X217324794Y-61610257D02*
X217467651Y-61538828D01*
X217467651Y-61538828D02*
X217681937Y-61538828D01*
X217681937Y-61538828D02*
X217824794Y-61610257D01*
X217824794Y-61610257D02*
X217896223Y-61681685D01*
X217896223Y-61681685D02*
X217967651Y-61824542D01*
X217967651Y-61824542D02*
X217967651Y-62253114D01*
X217967651Y-62253114D02*
X217896223Y-62395971D01*
X217896223Y-62395971D02*
X217824794Y-62467400D01*
X217824794Y-62467400D02*
X217681937Y-62538828D01*
X217681937Y-62538828D02*
X217467651Y-62538828D01*
X219753365Y-62538828D02*
X219753365Y-61038828D01*
X219753365Y-61038828D02*
X220110508Y-61038828D01*
X220110508Y-61038828D02*
X220324794Y-61110257D01*
X220324794Y-61110257D02*
X220467651Y-61253114D01*
X220467651Y-61253114D02*
X220539080Y-61395971D01*
X220539080Y-61395971D02*
X220610508Y-61681685D01*
X220610508Y-61681685D02*
X220610508Y-61895971D01*
X220610508Y-61895971D02*
X220539080Y-62181685D01*
X220539080Y-62181685D02*
X220467651Y-62324542D01*
X220467651Y-62324542D02*
X220324794Y-62467400D01*
X220324794Y-62467400D02*
X220110508Y-62538828D01*
X220110508Y-62538828D02*
X219753365Y-62538828D01*
X221253365Y-62538828D02*
X221253365Y-61538828D01*
X221253365Y-61824542D02*
X221324794Y-61681685D01*
X221324794Y-61681685D02*
X221396223Y-61610257D01*
X221396223Y-61610257D02*
X221539080Y-61538828D01*
X221539080Y-61538828D02*
X221681937Y-61538828D01*
X222181936Y-62538828D02*
X222181936Y-61538828D01*
X222181936Y-61038828D02*
X222110508Y-61110257D01*
X222110508Y-61110257D02*
X222181936Y-61181685D01*
X222181936Y-61181685D02*
X222253365Y-61110257D01*
X222253365Y-61110257D02*
X222181936Y-61038828D01*
X222181936Y-61038828D02*
X222181936Y-61181685D01*
X222753365Y-61538828D02*
X223110508Y-62538828D01*
X223110508Y-62538828D02*
X223467651Y-61538828D01*
X224610508Y-62467400D02*
X224467651Y-62538828D01*
X224467651Y-62538828D02*
X224181937Y-62538828D01*
X224181937Y-62538828D02*
X224039079Y-62467400D01*
X224039079Y-62467400D02*
X223967651Y-62324542D01*
X223967651Y-62324542D02*
X223967651Y-61753114D01*
X223967651Y-61753114D02*
X224039079Y-61610257D01*
X224039079Y-61610257D02*
X224181937Y-61538828D01*
X224181937Y-61538828D02*
X224467651Y-61538828D01*
X224467651Y-61538828D02*
X224610508Y-61610257D01*
X224610508Y-61610257D02*
X224681937Y-61753114D01*
X224681937Y-61753114D02*
X224681937Y-61895971D01*
X224681937Y-61895971D02*
X223967651Y-62038828D01*
X225324793Y-62538828D02*
X225324793Y-61538828D01*
X225324793Y-61824542D02*
X225396222Y-61681685D01*
X225396222Y-61681685D02*
X225467651Y-61610257D01*
X225467651Y-61610257D02*
X225610508Y-61538828D01*
X225610508Y-61538828D02*
X225753365Y-61538828D01*
D10*
X240067425Y-83001666D02*
X241286473Y-83001666D01*
X240676949Y-83611190D02*
X240676949Y-82392142D01*
D12*
X233837653Y-61538828D02*
X234194796Y-62538828D01*
X234194796Y-62538828D02*
X234551939Y-61538828D01*
X235909082Y-62538828D02*
X235051939Y-62538828D01*
X235480510Y-62538828D02*
X235480510Y-61038828D01*
X235480510Y-61038828D02*
X235337653Y-61253114D01*
X235337653Y-61253114D02*
X235194796Y-61395971D01*
X235194796Y-61395971D02*
X235051939Y-61467400D01*
D13*
X186800019Y-90348720D02*
X186800019Y-91082054D01*
X186800019Y-91082054D02*
X185700019Y-90610625D01*
X186119066Y-91501101D02*
X186119066Y-92339197D01*
X185700019Y-93439197D02*
X185700019Y-92810625D01*
X185700019Y-93124911D02*
X186800019Y-93124911D01*
X186800019Y-93124911D02*
X186642876Y-93020149D01*
X186642876Y-93020149D02*
X186538114Y-92915387D01*
X186538114Y-92915387D02*
X186485733Y-92810625D01*
X186695257Y-93858244D02*
X186747638Y-93910625D01*
X186747638Y-93910625D02*
X186800019Y-94015387D01*
X186800019Y-94015387D02*
X186800019Y-94277292D01*
X186800019Y-94277292D02*
X186747638Y-94382054D01*
X186747638Y-94382054D02*
X186695257Y-94434435D01*
X186695257Y-94434435D02*
X186590495Y-94486816D01*
X186590495Y-94486816D02*
X186485733Y-94486816D01*
X186485733Y-94486816D02*
X186328590Y-94434435D01*
X186328590Y-94434435D02*
X185700019Y-93805863D01*
X185700019Y-93805863D02*
X185700019Y-94486816D01*
X186800019Y-94801101D02*
X185700019Y-95167768D01*
X185700019Y-95167768D02*
X186800019Y-95534435D01*
X185700019Y-95901101D02*
X186433352Y-95901101D01*
X186800019Y-95901101D02*
X186747638Y-95848720D01*
X186747638Y-95848720D02*
X186695257Y-95901101D01*
X186695257Y-95901101D02*
X186747638Y-95953482D01*
X186747638Y-95953482D02*
X186800019Y-95901101D01*
X186800019Y-95901101D02*
X186695257Y-95901101D01*
X186433352Y-96424911D02*
X185700019Y-96424911D01*
X186328590Y-96424911D02*
X186380971Y-96477292D01*
X186380971Y-96477292D02*
X186433352Y-96582054D01*
X186433352Y-96582054D02*
X186433352Y-96739197D01*
X186433352Y-96739197D02*
X186380971Y-96843959D01*
X186380971Y-96843959D02*
X186276209Y-96896340D01*
X186276209Y-96896340D02*
X185700019Y-96896340D01*
D11*
%TO.C,TP5*%
X242143095Y-96794819D02*
X242714523Y-96794819D01*
X242428809Y-97794819D02*
X242428809Y-96794819D01*
X243047857Y-97794819D02*
X243047857Y-96794819D01*
X243047857Y-96794819D02*
X243428809Y-96794819D01*
X243428809Y-96794819D02*
X243524047Y-96842438D01*
X243524047Y-96842438D02*
X243571666Y-96890057D01*
X243571666Y-96890057D02*
X243619285Y-96985295D01*
X243619285Y-96985295D02*
X243619285Y-97128152D01*
X243619285Y-97128152D02*
X243571666Y-97223390D01*
X243571666Y-97223390D02*
X243524047Y-97271009D01*
X243524047Y-97271009D02*
X243428809Y-97318628D01*
X243428809Y-97318628D02*
X243047857Y-97318628D01*
X244524047Y-96794819D02*
X244047857Y-96794819D01*
X244047857Y-96794819D02*
X244000238Y-97271009D01*
X244000238Y-97271009D02*
X244047857Y-97223390D01*
X244047857Y-97223390D02*
X244143095Y-97175771D01*
X244143095Y-97175771D02*
X244381190Y-97175771D01*
X244381190Y-97175771D02*
X244476428Y-97223390D01*
X244476428Y-97223390D02*
X244524047Y-97271009D01*
X244524047Y-97271009D02*
X244571666Y-97366247D01*
X244571666Y-97366247D02*
X244571666Y-97604342D01*
X244571666Y-97604342D02*
X244524047Y-97699580D01*
X244524047Y-97699580D02*
X244476428Y-97747200D01*
X244476428Y-97747200D02*
X244381190Y-97794819D01*
X244381190Y-97794819D02*
X244143095Y-97794819D01*
X244143095Y-97794819D02*
X244047857Y-97747200D01*
X244047857Y-97747200D02*
X244000238Y-97699580D01*
%TO.C,TP4*%
X235158095Y-96794819D02*
X235729523Y-96794819D01*
X235443809Y-97794819D02*
X235443809Y-96794819D01*
X236062857Y-97794819D02*
X236062857Y-96794819D01*
X236062857Y-96794819D02*
X236443809Y-96794819D01*
X236443809Y-96794819D02*
X236539047Y-96842438D01*
X236539047Y-96842438D02*
X236586666Y-96890057D01*
X236586666Y-96890057D02*
X236634285Y-96985295D01*
X236634285Y-96985295D02*
X236634285Y-97128152D01*
X236634285Y-97128152D02*
X236586666Y-97223390D01*
X236586666Y-97223390D02*
X236539047Y-97271009D01*
X236539047Y-97271009D02*
X236443809Y-97318628D01*
X236443809Y-97318628D02*
X236062857Y-97318628D01*
X237491428Y-97128152D02*
X237491428Y-97794819D01*
X237253333Y-96747200D02*
X237015238Y-97461485D01*
X237015238Y-97461485D02*
X237634285Y-97461485D01*
%TO.C,TP3*%
X199533095Y-106994819D02*
X200104523Y-106994819D01*
X199818809Y-107994819D02*
X199818809Y-106994819D01*
X200437857Y-107994819D02*
X200437857Y-106994819D01*
X200437857Y-106994819D02*
X200818809Y-106994819D01*
X200818809Y-106994819D02*
X200914047Y-107042438D01*
X200914047Y-107042438D02*
X200961666Y-107090057D01*
X200961666Y-107090057D02*
X201009285Y-107185295D01*
X201009285Y-107185295D02*
X201009285Y-107328152D01*
X201009285Y-107328152D02*
X200961666Y-107423390D01*
X200961666Y-107423390D02*
X200914047Y-107471009D01*
X200914047Y-107471009D02*
X200818809Y-107518628D01*
X200818809Y-107518628D02*
X200437857Y-107518628D01*
X201342619Y-106994819D02*
X201961666Y-106994819D01*
X201961666Y-106994819D02*
X201628333Y-107375771D01*
X201628333Y-107375771D02*
X201771190Y-107375771D01*
X201771190Y-107375771D02*
X201866428Y-107423390D01*
X201866428Y-107423390D02*
X201914047Y-107471009D01*
X201914047Y-107471009D02*
X201961666Y-107566247D01*
X201961666Y-107566247D02*
X201961666Y-107804342D01*
X201961666Y-107804342D02*
X201914047Y-107899580D01*
X201914047Y-107899580D02*
X201866428Y-107947200D01*
X201866428Y-107947200D02*
X201771190Y-107994819D01*
X201771190Y-107994819D02*
X201485476Y-107994819D01*
X201485476Y-107994819D02*
X201390238Y-107947200D01*
X201390238Y-107947200D02*
X201342619Y-107899580D01*
%TO.C,TP2*%
X211528095Y-86790819D02*
X212099523Y-86790819D01*
X211813809Y-87790819D02*
X211813809Y-86790819D01*
X212432857Y-87790819D02*
X212432857Y-86790819D01*
X212432857Y-86790819D02*
X212813809Y-86790819D01*
X212813809Y-86790819D02*
X212909047Y-86838438D01*
X212909047Y-86838438D02*
X212956666Y-86886057D01*
X212956666Y-86886057D02*
X213004285Y-86981295D01*
X213004285Y-86981295D02*
X213004285Y-87124152D01*
X213004285Y-87124152D02*
X212956666Y-87219390D01*
X212956666Y-87219390D02*
X212909047Y-87267009D01*
X212909047Y-87267009D02*
X212813809Y-87314628D01*
X212813809Y-87314628D02*
X212432857Y-87314628D01*
X213385238Y-86886057D02*
X213432857Y-86838438D01*
X213432857Y-86838438D02*
X213528095Y-86790819D01*
X213528095Y-86790819D02*
X213766190Y-86790819D01*
X213766190Y-86790819D02*
X213861428Y-86838438D01*
X213861428Y-86838438D02*
X213909047Y-86886057D01*
X213909047Y-86886057D02*
X213956666Y-86981295D01*
X213956666Y-86981295D02*
X213956666Y-87076533D01*
X213956666Y-87076533D02*
X213909047Y-87219390D01*
X213909047Y-87219390D02*
X213337619Y-87790819D01*
X213337619Y-87790819D02*
X213956666Y-87790819D01*
%TO.C,TP1*%
X199533095Y-100009819D02*
X200104523Y-100009819D01*
X199818809Y-101009819D02*
X199818809Y-100009819D01*
X200437857Y-101009819D02*
X200437857Y-100009819D01*
X200437857Y-100009819D02*
X200818809Y-100009819D01*
X200818809Y-100009819D02*
X200914047Y-100057438D01*
X200914047Y-100057438D02*
X200961666Y-100105057D01*
X200961666Y-100105057D02*
X201009285Y-100200295D01*
X201009285Y-100200295D02*
X201009285Y-100343152D01*
X201009285Y-100343152D02*
X200961666Y-100438390D01*
X200961666Y-100438390D02*
X200914047Y-100486009D01*
X200914047Y-100486009D02*
X200818809Y-100533628D01*
X200818809Y-100533628D02*
X200437857Y-100533628D01*
X201961666Y-101009819D02*
X201390238Y-101009819D01*
X201675952Y-101009819D02*
X201675952Y-100009819D01*
X201675952Y-100009819D02*
X201580714Y-100152676D01*
X201580714Y-100152676D02*
X201485476Y-100247914D01*
X201485476Y-100247914D02*
X201390238Y-100295533D01*
%TO.C,C3*%
X206843333Y-79353580D02*
X206795714Y-79401200D01*
X206795714Y-79401200D02*
X206652857Y-79448819D01*
X206652857Y-79448819D02*
X206557619Y-79448819D01*
X206557619Y-79448819D02*
X206414762Y-79401200D01*
X206414762Y-79401200D02*
X206319524Y-79305961D01*
X206319524Y-79305961D02*
X206271905Y-79210723D01*
X206271905Y-79210723D02*
X206224286Y-79020247D01*
X206224286Y-79020247D02*
X206224286Y-78877390D01*
X206224286Y-78877390D02*
X206271905Y-78686914D01*
X206271905Y-78686914D02*
X206319524Y-78591676D01*
X206319524Y-78591676D02*
X206414762Y-78496438D01*
X206414762Y-78496438D02*
X206557619Y-78448819D01*
X206557619Y-78448819D02*
X206652857Y-78448819D01*
X206652857Y-78448819D02*
X206795714Y-78496438D01*
X206795714Y-78496438D02*
X206843333Y-78544057D01*
X207176667Y-78448819D02*
X207795714Y-78448819D01*
X207795714Y-78448819D02*
X207462381Y-78829771D01*
X207462381Y-78829771D02*
X207605238Y-78829771D01*
X207605238Y-78829771D02*
X207700476Y-78877390D01*
X207700476Y-78877390D02*
X207748095Y-78925009D01*
X207748095Y-78925009D02*
X207795714Y-79020247D01*
X207795714Y-79020247D02*
X207795714Y-79258342D01*
X207795714Y-79258342D02*
X207748095Y-79353580D01*
X207748095Y-79353580D02*
X207700476Y-79401200D01*
X207700476Y-79401200D02*
X207605238Y-79448819D01*
X207605238Y-79448819D02*
X207319524Y-79448819D01*
X207319524Y-79448819D02*
X207224286Y-79401200D01*
X207224286Y-79401200D02*
X207176667Y-79353580D01*
%TO.C,J2*%
X195714819Y-85333333D02*
X196429104Y-85333333D01*
X196429104Y-85333333D02*
X196571961Y-85380952D01*
X196571961Y-85380952D02*
X196667200Y-85476190D01*
X196667200Y-85476190D02*
X196714819Y-85619047D01*
X196714819Y-85619047D02*
X196714819Y-85714285D01*
X195810057Y-84904761D02*
X195762438Y-84857142D01*
X195762438Y-84857142D02*
X195714819Y-84761904D01*
X195714819Y-84761904D02*
X195714819Y-84523809D01*
X195714819Y-84523809D02*
X195762438Y-84428571D01*
X195762438Y-84428571D02*
X195810057Y-84380952D01*
X195810057Y-84380952D02*
X195905295Y-84333333D01*
X195905295Y-84333333D02*
X196000533Y-84333333D01*
X196000533Y-84333333D02*
X196143390Y-84380952D01*
X196143390Y-84380952D02*
X196714819Y-84952380D01*
X196714819Y-84952380D02*
X196714819Y-84333333D01*
%TO.C,D4*%
X207559405Y-73606819D02*
X207559405Y-72606819D01*
X207559405Y-72606819D02*
X207797500Y-72606819D01*
X207797500Y-72606819D02*
X207940357Y-72654438D01*
X207940357Y-72654438D02*
X208035595Y-72749676D01*
X208035595Y-72749676D02*
X208083214Y-72844914D01*
X208083214Y-72844914D02*
X208130833Y-73035390D01*
X208130833Y-73035390D02*
X208130833Y-73178247D01*
X208130833Y-73178247D02*
X208083214Y-73368723D01*
X208083214Y-73368723D02*
X208035595Y-73463961D01*
X208035595Y-73463961D02*
X207940357Y-73559200D01*
X207940357Y-73559200D02*
X207797500Y-73606819D01*
X207797500Y-73606819D02*
X207559405Y-73606819D01*
X208987976Y-72940152D02*
X208987976Y-73606819D01*
X208749881Y-72559200D02*
X208511786Y-73273485D01*
X208511786Y-73273485D02*
X209130833Y-73273485D01*
%TO.C,C2*%
X227163333Y-97133580D02*
X227115714Y-97181200D01*
X227115714Y-97181200D02*
X226972857Y-97228819D01*
X226972857Y-97228819D02*
X226877619Y-97228819D01*
X226877619Y-97228819D02*
X226734762Y-97181200D01*
X226734762Y-97181200D02*
X226639524Y-97085961D01*
X226639524Y-97085961D02*
X226591905Y-96990723D01*
X226591905Y-96990723D02*
X226544286Y-96800247D01*
X226544286Y-96800247D02*
X226544286Y-96657390D01*
X226544286Y-96657390D02*
X226591905Y-96466914D01*
X226591905Y-96466914D02*
X226639524Y-96371676D01*
X226639524Y-96371676D02*
X226734762Y-96276438D01*
X226734762Y-96276438D02*
X226877619Y-96228819D01*
X226877619Y-96228819D02*
X226972857Y-96228819D01*
X226972857Y-96228819D02*
X227115714Y-96276438D01*
X227115714Y-96276438D02*
X227163333Y-96324057D01*
X227544286Y-96324057D02*
X227591905Y-96276438D01*
X227591905Y-96276438D02*
X227687143Y-96228819D01*
X227687143Y-96228819D02*
X227925238Y-96228819D01*
X227925238Y-96228819D02*
X228020476Y-96276438D01*
X228020476Y-96276438D02*
X228068095Y-96324057D01*
X228068095Y-96324057D02*
X228115714Y-96419295D01*
X228115714Y-96419295D02*
X228115714Y-96514533D01*
X228115714Y-96514533D02*
X228068095Y-96657390D01*
X228068095Y-96657390D02*
X227496667Y-97228819D01*
X227496667Y-97228819D02*
X228115714Y-97228819D01*
%TO.C,U2*%
X199136095Y-80226819D02*
X199136095Y-81036342D01*
X199136095Y-81036342D02*
X199183714Y-81131580D01*
X199183714Y-81131580D02*
X199231333Y-81179200D01*
X199231333Y-81179200D02*
X199326571Y-81226819D01*
X199326571Y-81226819D02*
X199517047Y-81226819D01*
X199517047Y-81226819D02*
X199612285Y-81179200D01*
X199612285Y-81179200D02*
X199659904Y-81131580D01*
X199659904Y-81131580D02*
X199707523Y-81036342D01*
X199707523Y-81036342D02*
X199707523Y-80226819D01*
X200136095Y-80322057D02*
X200183714Y-80274438D01*
X200183714Y-80274438D02*
X200278952Y-80226819D01*
X200278952Y-80226819D02*
X200517047Y-80226819D01*
X200517047Y-80226819D02*
X200612285Y-80274438D01*
X200612285Y-80274438D02*
X200659904Y-80322057D01*
X200659904Y-80322057D02*
X200707523Y-80417295D01*
X200707523Y-80417295D02*
X200707523Y-80512533D01*
X200707523Y-80512533D02*
X200659904Y-80655390D01*
X200659904Y-80655390D02*
X200088476Y-81226819D01*
X200088476Y-81226819D02*
X200707523Y-81226819D01*
%TO.C,R2*%
X218239333Y-73352819D02*
X217906000Y-72876628D01*
X217667905Y-73352819D02*
X217667905Y-72352819D01*
X217667905Y-72352819D02*
X218048857Y-72352819D01*
X218048857Y-72352819D02*
X218144095Y-72400438D01*
X218144095Y-72400438D02*
X218191714Y-72448057D01*
X218191714Y-72448057D02*
X218239333Y-72543295D01*
X218239333Y-72543295D02*
X218239333Y-72686152D01*
X218239333Y-72686152D02*
X218191714Y-72781390D01*
X218191714Y-72781390D02*
X218144095Y-72829009D01*
X218144095Y-72829009D02*
X218048857Y-72876628D01*
X218048857Y-72876628D02*
X217667905Y-72876628D01*
X218620286Y-72448057D02*
X218667905Y-72400438D01*
X218667905Y-72400438D02*
X218763143Y-72352819D01*
X218763143Y-72352819D02*
X219001238Y-72352819D01*
X219001238Y-72352819D02*
X219096476Y-72400438D01*
X219096476Y-72400438D02*
X219144095Y-72448057D01*
X219144095Y-72448057D02*
X219191714Y-72543295D01*
X219191714Y-72543295D02*
X219191714Y-72638533D01*
X219191714Y-72638533D02*
X219144095Y-72781390D01*
X219144095Y-72781390D02*
X218572667Y-73352819D01*
X218572667Y-73352819D02*
X219191714Y-73352819D01*
%TO.C,R1*%
X218189333Y-76078819D02*
X217856000Y-75602628D01*
X217617905Y-76078819D02*
X217617905Y-75078819D01*
X217617905Y-75078819D02*
X217998857Y-75078819D01*
X217998857Y-75078819D02*
X218094095Y-75126438D01*
X218094095Y-75126438D02*
X218141714Y-75174057D01*
X218141714Y-75174057D02*
X218189333Y-75269295D01*
X218189333Y-75269295D02*
X218189333Y-75412152D01*
X218189333Y-75412152D02*
X218141714Y-75507390D01*
X218141714Y-75507390D02*
X218094095Y-75555009D01*
X218094095Y-75555009D02*
X217998857Y-75602628D01*
X217998857Y-75602628D02*
X217617905Y-75602628D01*
X219141714Y-76078819D02*
X218570286Y-76078819D01*
X218856000Y-76078819D02*
X218856000Y-75078819D01*
X218856000Y-75078819D02*
X218760762Y-75221676D01*
X218760762Y-75221676D02*
X218665524Y-75316914D01*
X218665524Y-75316914D02*
X218570286Y-75364533D01*
%TO.C,U1*%
X231594095Y-92208819D02*
X231594095Y-93018342D01*
X231594095Y-93018342D02*
X231641714Y-93113580D01*
X231641714Y-93113580D02*
X231689333Y-93161200D01*
X231689333Y-93161200D02*
X231784571Y-93208819D01*
X231784571Y-93208819D02*
X231975047Y-93208819D01*
X231975047Y-93208819D02*
X232070285Y-93161200D01*
X232070285Y-93161200D02*
X232117904Y-93113580D01*
X232117904Y-93113580D02*
X232165523Y-93018342D01*
X232165523Y-93018342D02*
X232165523Y-92208819D01*
X233165523Y-93208819D02*
X232594095Y-93208819D01*
X232879809Y-93208819D02*
X232879809Y-92208819D01*
X232879809Y-92208819D02*
X232784571Y-92351676D01*
X232784571Y-92351676D02*
X232689333Y-92446914D01*
X232689333Y-92446914D02*
X232594095Y-92494533D01*
%TO.C,J1*%
X242744666Y-77584819D02*
X242744666Y-78299104D01*
X242744666Y-78299104D02*
X242697047Y-78441961D01*
X242697047Y-78441961D02*
X242601809Y-78537200D01*
X242601809Y-78537200D02*
X242458952Y-78584819D01*
X242458952Y-78584819D02*
X242363714Y-78584819D01*
X243744666Y-78584819D02*
X243173238Y-78584819D01*
X243458952Y-78584819D02*
X243458952Y-77584819D01*
X243458952Y-77584819D02*
X243363714Y-77727676D01*
X243363714Y-77727676D02*
X243268476Y-77822914D01*
X243268476Y-77822914D02*
X243173238Y-77870533D01*
%TO.C,D3*%
X200261905Y-94454819D02*
X200261905Y-93454819D01*
X200261905Y-93454819D02*
X200500000Y-93454819D01*
X200500000Y-93454819D02*
X200642857Y-93502438D01*
X200642857Y-93502438D02*
X200738095Y-93597676D01*
X200738095Y-93597676D02*
X200785714Y-93692914D01*
X200785714Y-93692914D02*
X200833333Y-93883390D01*
X200833333Y-93883390D02*
X200833333Y-94026247D01*
X200833333Y-94026247D02*
X200785714Y-94216723D01*
X200785714Y-94216723D02*
X200738095Y-94311961D01*
X200738095Y-94311961D02*
X200642857Y-94407200D01*
X200642857Y-94407200D02*
X200500000Y-94454819D01*
X200500000Y-94454819D02*
X200261905Y-94454819D01*
X201166667Y-93454819D02*
X201785714Y-93454819D01*
X201785714Y-93454819D02*
X201452381Y-93835771D01*
X201452381Y-93835771D02*
X201595238Y-93835771D01*
X201595238Y-93835771D02*
X201690476Y-93883390D01*
X201690476Y-93883390D02*
X201738095Y-93931009D01*
X201738095Y-93931009D02*
X201785714Y-94026247D01*
X201785714Y-94026247D02*
X201785714Y-94264342D01*
X201785714Y-94264342D02*
X201738095Y-94359580D01*
X201738095Y-94359580D02*
X201690476Y-94407200D01*
X201690476Y-94407200D02*
X201595238Y-94454819D01*
X201595238Y-94454819D02*
X201309524Y-94454819D01*
X201309524Y-94454819D02*
X201214286Y-94407200D01*
X201214286Y-94407200D02*
X201166667Y-94359580D01*
%TO.C,R4*%
X197456819Y-73318666D02*
X196980628Y-73651999D01*
X197456819Y-73890094D02*
X196456819Y-73890094D01*
X196456819Y-73890094D02*
X196456819Y-73509142D01*
X196456819Y-73509142D02*
X196504438Y-73413904D01*
X196504438Y-73413904D02*
X196552057Y-73366285D01*
X196552057Y-73366285D02*
X196647295Y-73318666D01*
X196647295Y-73318666D02*
X196790152Y-73318666D01*
X196790152Y-73318666D02*
X196885390Y-73366285D01*
X196885390Y-73366285D02*
X196933009Y-73413904D01*
X196933009Y-73413904D02*
X196980628Y-73509142D01*
X196980628Y-73509142D02*
X196980628Y-73890094D01*
X196790152Y-72461523D02*
X197456819Y-72461523D01*
X196409200Y-72699618D02*
X197123485Y-72937713D01*
X197123485Y-72937713D02*
X197123485Y-72318666D01*
%TO.C,D2*%
X194333905Y-96172819D02*
X194333905Y-95172819D01*
X194333905Y-95172819D02*
X194572000Y-95172819D01*
X194572000Y-95172819D02*
X194714857Y-95220438D01*
X194714857Y-95220438D02*
X194810095Y-95315676D01*
X194810095Y-95315676D02*
X194857714Y-95410914D01*
X194857714Y-95410914D02*
X194905333Y-95601390D01*
X194905333Y-95601390D02*
X194905333Y-95744247D01*
X194905333Y-95744247D02*
X194857714Y-95934723D01*
X194857714Y-95934723D02*
X194810095Y-96029961D01*
X194810095Y-96029961D02*
X194714857Y-96125200D01*
X194714857Y-96125200D02*
X194572000Y-96172819D01*
X194572000Y-96172819D02*
X194333905Y-96172819D01*
X195286286Y-95268057D02*
X195333905Y-95220438D01*
X195333905Y-95220438D02*
X195429143Y-95172819D01*
X195429143Y-95172819D02*
X195667238Y-95172819D01*
X195667238Y-95172819D02*
X195762476Y-95220438D01*
X195762476Y-95220438D02*
X195810095Y-95268057D01*
X195810095Y-95268057D02*
X195857714Y-95363295D01*
X195857714Y-95363295D02*
X195857714Y-95458533D01*
X195857714Y-95458533D02*
X195810095Y-95601390D01*
X195810095Y-95601390D02*
X195238667Y-96172819D01*
X195238667Y-96172819D02*
X195857714Y-96172819D01*
%TO.C,R3*%
X200493333Y-91454819D02*
X200160000Y-90978628D01*
X199921905Y-91454819D02*
X199921905Y-90454819D01*
X199921905Y-90454819D02*
X200302857Y-90454819D01*
X200302857Y-90454819D02*
X200398095Y-90502438D01*
X200398095Y-90502438D02*
X200445714Y-90550057D01*
X200445714Y-90550057D02*
X200493333Y-90645295D01*
X200493333Y-90645295D02*
X200493333Y-90788152D01*
X200493333Y-90788152D02*
X200445714Y-90883390D01*
X200445714Y-90883390D02*
X200398095Y-90931009D01*
X200398095Y-90931009D02*
X200302857Y-90978628D01*
X200302857Y-90978628D02*
X199921905Y-90978628D01*
X200826667Y-90454819D02*
X201445714Y-90454819D01*
X201445714Y-90454819D02*
X201112381Y-90835771D01*
X201112381Y-90835771D02*
X201255238Y-90835771D01*
X201255238Y-90835771D02*
X201350476Y-90883390D01*
X201350476Y-90883390D02*
X201398095Y-90931009D01*
X201398095Y-90931009D02*
X201445714Y-91026247D01*
X201445714Y-91026247D02*
X201445714Y-91264342D01*
X201445714Y-91264342D02*
X201398095Y-91359580D01*
X201398095Y-91359580D02*
X201350476Y-91407200D01*
X201350476Y-91407200D02*
X201255238Y-91454819D01*
X201255238Y-91454819D02*
X200969524Y-91454819D01*
X200969524Y-91454819D02*
X200874286Y-91407200D01*
X200874286Y-91407200D02*
X200826667Y-91359580D01*
%TO.C,RV1*%
X207804819Y-102495238D02*
X207328628Y-102828571D01*
X207804819Y-103066666D02*
X206804819Y-103066666D01*
X206804819Y-103066666D02*
X206804819Y-102685714D01*
X206804819Y-102685714D02*
X206852438Y-102590476D01*
X206852438Y-102590476D02*
X206900057Y-102542857D01*
X206900057Y-102542857D02*
X206995295Y-102495238D01*
X206995295Y-102495238D02*
X207138152Y-102495238D01*
X207138152Y-102495238D02*
X207233390Y-102542857D01*
X207233390Y-102542857D02*
X207281009Y-102590476D01*
X207281009Y-102590476D02*
X207328628Y-102685714D01*
X207328628Y-102685714D02*
X207328628Y-103066666D01*
X206804819Y-102209523D02*
X207804819Y-101876190D01*
X207804819Y-101876190D02*
X206804819Y-101542857D01*
X207804819Y-100685714D02*
X207804819Y-101257142D01*
X207804819Y-100971428D02*
X206804819Y-100971428D01*
X206804819Y-100971428D02*
X206947676Y-101066666D01*
X206947676Y-101066666D02*
X207042914Y-101161904D01*
X207042914Y-101161904D02*
X207090533Y-101257142D01*
%TO.C,C1*%
X238265580Y-89340666D02*
X238313200Y-89388285D01*
X238313200Y-89388285D02*
X238360819Y-89531142D01*
X238360819Y-89531142D02*
X238360819Y-89626380D01*
X238360819Y-89626380D02*
X238313200Y-89769237D01*
X238313200Y-89769237D02*
X238217961Y-89864475D01*
X238217961Y-89864475D02*
X238122723Y-89912094D01*
X238122723Y-89912094D02*
X237932247Y-89959713D01*
X237932247Y-89959713D02*
X237789390Y-89959713D01*
X237789390Y-89959713D02*
X237598914Y-89912094D01*
X237598914Y-89912094D02*
X237503676Y-89864475D01*
X237503676Y-89864475D02*
X237408438Y-89769237D01*
X237408438Y-89769237D02*
X237360819Y-89626380D01*
X237360819Y-89626380D02*
X237360819Y-89531142D01*
X237360819Y-89531142D02*
X237408438Y-89388285D01*
X237408438Y-89388285D02*
X237456057Y-89340666D01*
X238360819Y-88388285D02*
X238360819Y-88959713D01*
X238360819Y-88673999D02*
X237360819Y-88673999D01*
X237360819Y-88673999D02*
X237503676Y-88769237D01*
X237503676Y-88769237D02*
X237598914Y-88864475D01*
X237598914Y-88864475D02*
X237646533Y-88959713D01*
%TO.C,D1*%
X217617905Y-79078819D02*
X217617905Y-78078819D01*
X217617905Y-78078819D02*
X217856000Y-78078819D01*
X217856000Y-78078819D02*
X217998857Y-78126438D01*
X217998857Y-78126438D02*
X218094095Y-78221676D01*
X218094095Y-78221676D02*
X218141714Y-78316914D01*
X218141714Y-78316914D02*
X218189333Y-78507390D01*
X218189333Y-78507390D02*
X218189333Y-78650247D01*
X218189333Y-78650247D02*
X218141714Y-78840723D01*
X218141714Y-78840723D02*
X218094095Y-78935961D01*
X218094095Y-78935961D02*
X217998857Y-79031200D01*
X217998857Y-79031200D02*
X217856000Y-79078819D01*
X217856000Y-79078819D02*
X217617905Y-79078819D01*
X219141714Y-79078819D02*
X218570286Y-79078819D01*
X218856000Y-79078819D02*
X218856000Y-78078819D01*
X218856000Y-78078819D02*
X218760762Y-78221676D01*
X218760762Y-78221676D02*
X218665524Y-78316914D01*
X218665524Y-78316914D02*
X218570286Y-78364533D01*
X220284095Y-81078819D02*
X220284095Y-80078819D01*
X220855523Y-81078819D02*
X220426952Y-80507390D01*
X220855523Y-80078819D02*
X220284095Y-80650247D01*
%TO.C,G\u002A\u002A\u002A*%
G36*
X226153794Y-106142235D02*
G01*
X226226658Y-106142365D01*
X226295097Y-106142574D01*
X226358232Y-106142855D01*
X226415185Y-106143201D01*
X226465077Y-106143605D01*
X226507029Y-106144061D01*
X226540162Y-106144561D01*
X226563597Y-106145100D01*
X226576455Y-106145671D01*
X226578730Y-106146037D01*
X226576291Y-106152927D01*
X226569771Y-106168048D01*
X226560365Y-106188854D01*
X226549269Y-106212799D01*
X226537678Y-106237336D01*
X226526788Y-106259918D01*
X226517794Y-106277998D01*
X226511893Y-106289030D01*
X226510819Y-106290702D01*
X226506368Y-106292862D01*
X226495908Y-106294601D01*
X226478476Y-106295952D01*
X226453111Y-106296953D01*
X226418850Y-106297637D01*
X226374729Y-106298040D01*
X226319788Y-106298197D01*
X226305934Y-106298202D01*
X226106613Y-106298202D01*
X225939730Y-106652230D01*
X225772848Y-107006258D01*
X225671825Y-107006258D01*
X225570802Y-107006258D01*
X225585033Y-106974755D01*
X225590178Y-106963612D01*
X225599945Y-106942694D01*
X225613829Y-106913078D01*
X225631324Y-106875839D01*
X225651923Y-106832052D01*
X225675122Y-106782794D01*
X225700413Y-106729140D01*
X225727291Y-106672165D01*
X225749971Y-106624125D01*
X225777259Y-106566285D01*
X225802957Y-106511706D01*
X225826617Y-106461347D01*
X225847790Y-106416169D01*
X225866028Y-106377132D01*
X225880882Y-106345195D01*
X225891903Y-106321319D01*
X225898642Y-106306464D01*
X225900677Y-106301600D01*
X225894912Y-106300779D01*
X225878559Y-106300029D01*
X225853030Y-106299376D01*
X225819739Y-106298843D01*
X225780099Y-106298456D01*
X225735521Y-106298240D01*
X225706661Y-106298202D01*
X225659588Y-106298101D01*
X225616427Y-106297814D01*
X225578625Y-106297367D01*
X225547627Y-106296783D01*
X225524879Y-106296089D01*
X225511827Y-106295308D01*
X225509257Y-106294813D01*
X225510300Y-106288352D01*
X225515824Y-106273651D01*
X225524847Y-106253155D01*
X225532297Y-106237525D01*
X225544710Y-106211901D01*
X225556039Y-106187967D01*
X225564594Y-106169317D01*
X225567382Y-106162908D01*
X225576039Y-106142190D01*
X226077384Y-106142190D01*
X226153794Y-106142235D01*
G37*
G36*
X227727568Y-106175189D02*
G01*
X227717168Y-106197886D01*
X227704147Y-106225191D01*
X227691820Y-106250195D01*
X227670665Y-106292202D01*
X227328561Y-106292202D01*
X226986458Y-106292202D01*
X226942496Y-106383709D01*
X226928131Y-106414152D01*
X226916027Y-106440846D01*
X226906992Y-106461926D01*
X226901831Y-106475525D01*
X226900999Y-106479717D01*
X226907376Y-106480804D01*
X226924319Y-106481796D01*
X226950394Y-106482662D01*
X226984167Y-106483367D01*
X227024204Y-106483880D01*
X227069070Y-106484167D01*
X227098125Y-106484217D01*
X227145091Y-106484300D01*
X227187979Y-106484536D01*
X227225380Y-106484905D01*
X227255883Y-106485386D01*
X227278076Y-106485958D01*
X227290551Y-106486602D01*
X227292786Y-106487027D01*
X227290376Y-106493200D01*
X227283776Y-106508123D01*
X227273934Y-106529701D01*
X227261797Y-106555839D01*
X227258930Y-106561954D01*
X227225074Y-106634071D01*
X227024050Y-106635650D01*
X226823027Y-106637229D01*
X226775884Y-106738062D01*
X226761003Y-106770029D01*
X226748052Y-106798111D01*
X226737828Y-106820561D01*
X226731126Y-106835632D01*
X226728742Y-106841570D01*
X226734566Y-106842059D01*
X226751331Y-106842520D01*
X226777979Y-106842943D01*
X226813449Y-106843321D01*
X226856682Y-106843645D01*
X226906619Y-106843908D01*
X226962201Y-106844101D01*
X227022367Y-106844215D01*
X227073769Y-106844245D01*
X227136874Y-106844304D01*
X227196254Y-106844474D01*
X227250847Y-106844745D01*
X227299595Y-106845105D01*
X227341439Y-106845544D01*
X227375319Y-106846050D01*
X227400175Y-106846615D01*
X227414948Y-106847225D01*
X227418796Y-106847747D01*
X227416348Y-106854136D01*
X227409621Y-106869310D01*
X227399540Y-106891240D01*
X227387028Y-106917898D01*
X227381873Y-106928753D01*
X227344950Y-107006258D01*
X226895335Y-107006258D01*
X226813162Y-107006186D01*
X226737672Y-107005975D01*
X226669491Y-107005634D01*
X226609245Y-107005168D01*
X226557560Y-107004588D01*
X226515064Y-107003899D01*
X226482381Y-107003110D01*
X226460140Y-107002228D01*
X226448965Y-107001262D01*
X226447720Y-107000759D01*
X226450535Y-106994589D01*
X226458077Y-106978398D01*
X226469955Y-106953020D01*
X226485777Y-106919289D01*
X226505150Y-106878039D01*
X226527684Y-106830104D01*
X226552985Y-106776316D01*
X226580663Y-106717511D01*
X226610326Y-106654522D01*
X226641581Y-106588183D01*
X226650736Y-106568757D01*
X226851752Y-106142254D01*
X227296956Y-106142222D01*
X227742161Y-106142190D01*
X227727568Y-106175189D01*
G37*
G36*
X228555864Y-106142490D02*
G01*
X228582935Y-106142933D01*
X228601184Y-106143914D01*
X228612200Y-106145570D01*
X228617570Y-106148040D01*
X228618891Y-106151174D01*
X228619506Y-106158624D01*
X228621269Y-106176815D01*
X228624054Y-106204555D01*
X228627735Y-106240651D01*
X228632188Y-106283912D01*
X228637286Y-106333145D01*
X228642905Y-106387158D01*
X228648919Y-106444759D01*
X228655204Y-106504755D01*
X228661632Y-106565955D01*
X228668080Y-106627166D01*
X228674421Y-106687195D01*
X228680531Y-106744852D01*
X228686284Y-106798943D01*
X228691555Y-106848276D01*
X228696218Y-106891659D01*
X228700148Y-106927901D01*
X228703219Y-106955808D01*
X228705307Y-106974188D01*
X228706117Y-106980756D01*
X228709633Y-107006258D01*
X228595256Y-107006258D01*
X228555417Y-107006178D01*
X228526007Y-107005843D01*
X228505453Y-107005109D01*
X228492185Y-107003832D01*
X228484630Y-107001869D01*
X228481218Y-106999076D01*
X228480390Y-106995757D01*
X228479729Y-106986161D01*
X228478257Y-106967113D01*
X228476172Y-106941118D01*
X228473674Y-106910685D01*
X228472889Y-106901250D01*
X228465879Y-106817243D01*
X228193848Y-106815681D01*
X227921818Y-106814120D01*
X227822412Y-106910189D01*
X227723006Y-107006258D01*
X227623454Y-107006258D01*
X227523901Y-107006258D01*
X227568856Y-106961454D01*
X227579771Y-106950724D01*
X227598643Y-106932345D01*
X227624778Y-106906986D01*
X227657482Y-106875319D01*
X227696063Y-106838013D01*
X227739827Y-106795737D01*
X227788080Y-106749161D01*
X227840130Y-106698956D01*
X227887087Y-106653691D01*
X228084849Y-106653691D01*
X228090609Y-106654811D01*
X228106926Y-106655830D01*
X228132359Y-106656713D01*
X228165465Y-106657426D01*
X228204799Y-106657933D01*
X228248921Y-106658199D01*
X228270863Y-106658231D01*
X228323096Y-106658192D01*
X228364562Y-106658029D01*
X228396493Y-106657672D01*
X228420124Y-106657052D01*
X228436688Y-106656100D01*
X228447418Y-106654744D01*
X228453548Y-106652917D01*
X228456311Y-106650548D01*
X228456941Y-106647730D01*
X228456567Y-106636087D01*
X228455465Y-106614729D01*
X228453773Y-106585722D01*
X228451629Y-106551135D01*
X228449173Y-106513037D01*
X228446542Y-106473496D01*
X228443876Y-106434580D01*
X228441313Y-106398358D01*
X228438992Y-106366897D01*
X228437051Y-106342266D01*
X228435628Y-106326534D01*
X228435163Y-106322703D01*
X228431956Y-106302199D01*
X228258403Y-106475676D01*
X228220901Y-106513269D01*
X228186183Y-106548278D01*
X228155141Y-106579788D01*
X228128668Y-106606884D01*
X228107657Y-106628651D01*
X228092999Y-106644173D01*
X228085586Y-106652535D01*
X228084849Y-106653691D01*
X227887087Y-106653691D01*
X227895282Y-106645791D01*
X227952844Y-106590336D01*
X228012121Y-106533260D01*
X228015843Y-106529677D01*
X228417875Y-106142703D01*
X228518383Y-106142447D01*
X228555864Y-106142490D01*
G37*
G36*
X230454720Y-106167692D02*
G01*
X230450222Y-106177191D01*
X230441042Y-106196633D01*
X230427609Y-106225105D01*
X230410355Y-106261694D01*
X230389709Y-106305487D01*
X230366104Y-106355569D01*
X230339969Y-106411027D01*
X230311735Y-106470948D01*
X230281833Y-106534419D01*
X230251775Y-106598226D01*
X230060990Y-107003258D01*
X229966990Y-107004910D01*
X229934939Y-107005310D01*
X229907583Y-107005340D01*
X229886951Y-107005023D01*
X229875072Y-107004381D01*
X229872989Y-107003850D01*
X229875475Y-106998066D01*
X229882619Y-106982435D01*
X229893952Y-106957959D01*
X229909006Y-106925643D01*
X229927312Y-106886489D01*
X229948402Y-106841502D01*
X229971807Y-106791683D01*
X229997057Y-106738038D01*
X230010425Y-106709675D01*
X230036352Y-106654586D01*
X230060583Y-106602899D01*
X230082661Y-106555602D01*
X230102128Y-106513686D01*
X230118526Y-106478143D01*
X230131398Y-106449961D01*
X230140285Y-106430131D01*
X230144731Y-106419644D01*
X230145136Y-106418212D01*
X230140141Y-106421909D01*
X230126652Y-106432573D01*
X230105459Y-106449567D01*
X230077349Y-106472249D01*
X230043112Y-106499983D01*
X230003536Y-106532127D01*
X229959410Y-106568044D01*
X229911523Y-106607094D01*
X229860662Y-106648638D01*
X229847188Y-106659656D01*
X229786861Y-106708948D01*
X229735079Y-106751138D01*
X229691136Y-106786765D01*
X229654325Y-106816368D01*
X229623938Y-106840488D01*
X229599270Y-106859665D01*
X229579613Y-106874439D01*
X229564260Y-106885349D01*
X229552505Y-106892937D01*
X229543640Y-106897741D01*
X229536960Y-106900302D01*
X229531756Y-106901159D01*
X229531054Y-106901175D01*
X229510144Y-106901250D01*
X229437076Y-106668261D01*
X229421186Y-106617730D01*
X229406357Y-106570841D01*
X229392983Y-106528815D01*
X229381456Y-106492874D01*
X229372167Y-106464237D01*
X229365509Y-106444127D01*
X229361875Y-106433763D01*
X229361356Y-106432620D01*
X229358372Y-106437370D01*
X229350776Y-106451999D01*
X229339048Y-106475516D01*
X229323668Y-106506932D01*
X229305117Y-106545259D01*
X229283874Y-106589506D01*
X229260419Y-106638685D01*
X229235234Y-106691807D01*
X229223521Y-106716612D01*
X229088339Y-107003258D01*
X229006069Y-107004931D01*
X228974785Y-107005198D01*
X228949817Y-107004677D01*
X228932937Y-107003451D01*
X228925922Y-107001605D01*
X228925857Y-107001173D01*
X228928680Y-106995013D01*
X228936227Y-106978830D01*
X228948108Y-106953459D01*
X228963929Y-106919733D01*
X228983300Y-106878485D01*
X229005829Y-106830548D01*
X229031124Y-106776757D01*
X229058794Y-106717945D01*
X229088447Y-106654944D01*
X229119692Y-106588590D01*
X229128931Y-106568974D01*
X229329947Y-106142207D01*
X229413635Y-106143699D01*
X229497323Y-106145190D01*
X229575870Y-106391210D01*
X229592523Y-106443341D01*
X229608099Y-106492049D01*
X229622210Y-106536120D01*
X229634465Y-106574340D01*
X229644475Y-106605493D01*
X229651850Y-106628366D01*
X229656200Y-106641744D01*
X229657195Y-106644702D01*
X229662317Y-106642468D01*
X229676231Y-106633090D01*
X229698403Y-106616977D01*
X229728298Y-106594538D01*
X229765383Y-106566182D01*
X229809122Y-106532317D01*
X229858983Y-106493352D01*
X229914429Y-106449697D01*
X229974928Y-106401759D01*
X229980685Y-106397183D01*
X230301397Y-106142190D01*
X230384139Y-106142190D01*
X230466880Y-106142190D01*
X230454720Y-106167692D01*
G37*
G36*
X231223087Y-106143017D02*
G01*
X231292497Y-106143268D01*
X231338032Y-106143492D01*
X231664130Y-106145190D01*
X231692289Y-106159060D01*
X231713028Y-106171986D01*
X231725368Y-106187450D01*
X231730058Y-106207705D01*
X231727849Y-106235002D01*
X231723928Y-106253993D01*
X231716833Y-106279843D01*
X231708167Y-106305379D01*
X231701186Y-106322052D01*
X231688115Y-106348903D01*
X231595205Y-106368144D01*
X231563491Y-106374572D01*
X231536182Y-106379840D01*
X231515308Y-106383578D01*
X231502899Y-106385416D01*
X231500353Y-106385444D01*
X231501703Y-106379469D01*
X231507051Y-106365467D01*
X231515301Y-106346274D01*
X231516766Y-106343023D01*
X231525628Y-106323206D01*
X231532141Y-106308125D01*
X231535067Y-106300655D01*
X231535120Y-106300372D01*
X231529315Y-106299936D01*
X231512676Y-106299529D01*
X231486372Y-106299160D01*
X231451572Y-106298838D01*
X231409443Y-106298573D01*
X231361153Y-106298372D01*
X231307871Y-106298246D01*
X231251281Y-106298202D01*
X230967442Y-106298202D01*
X230927255Y-106384211D01*
X230913564Y-106413735D01*
X230901876Y-106439365D01*
X230893056Y-106459169D01*
X230887970Y-106471215D01*
X230887069Y-106473921D01*
X230892885Y-106474664D01*
X230909589Y-106475426D01*
X230936072Y-106476188D01*
X230971222Y-106476929D01*
X231013927Y-106477630D01*
X231063076Y-106478273D01*
X231117558Y-106478836D01*
X231176261Y-106479300D01*
X231200594Y-106479453D01*
X231272192Y-106479887D01*
X231332803Y-106480342D01*
X231383445Y-106480901D01*
X231425131Y-106481649D01*
X231458876Y-106482670D01*
X231485697Y-106484048D01*
X231506608Y-106485867D01*
X231522623Y-106488213D01*
X231534759Y-106491168D01*
X231544031Y-106494818D01*
X231551453Y-106499246D01*
X231558040Y-106504537D01*
X231563531Y-106509578D01*
X231573738Y-106522212D01*
X231579604Y-106537746D01*
X231580879Y-106557183D01*
X231577316Y-106581525D01*
X231568663Y-106611774D01*
X231554674Y-106648933D01*
X231535098Y-106694002D01*
X231509687Y-106747985D01*
X231498670Y-106770594D01*
X231478201Y-106811901D01*
X231461676Y-106844109D01*
X231448012Y-106869017D01*
X231436123Y-106888424D01*
X231424926Y-106904126D01*
X231413335Y-106917923D01*
X231403622Y-106928214D01*
X231374312Y-106954773D01*
X231344268Y-106974011D01*
X231309599Y-106987984D01*
X231272460Y-106997496D01*
X231256244Y-106999598D01*
X231229679Y-107001423D01*
X231194163Y-107002972D01*
X231151092Y-107004248D01*
X231101863Y-107005251D01*
X231047872Y-107005983D01*
X230990517Y-107006447D01*
X230931194Y-107006642D01*
X230871300Y-107006572D01*
X230812231Y-107006238D01*
X230755384Y-107005641D01*
X230702156Y-107004784D01*
X230653944Y-107003667D01*
X230612144Y-107002292D01*
X230578154Y-107000661D01*
X230553369Y-106998776D01*
X230539192Y-106996640D01*
X230507845Y-106984948D01*
X230487345Y-106968973D01*
X230476943Y-106947520D01*
X230475888Y-106919397D01*
X230478996Y-106900767D01*
X230484417Y-106880298D01*
X230492399Y-106855130D01*
X230501608Y-106828983D01*
X230510710Y-106805581D01*
X230518371Y-106788643D01*
X230520552Y-106784795D01*
X230527551Y-106781470D01*
X230543837Y-106776697D01*
X230566984Y-106770969D01*
X230594566Y-106764779D01*
X230624160Y-106758620D01*
X230653339Y-106752986D01*
X230679679Y-106748369D01*
X230700755Y-106745263D01*
X230714141Y-106744160D01*
X230717553Y-106744734D01*
X230716249Y-106750821D01*
X230710613Y-106764525D01*
X230702230Y-106782133D01*
X230692324Y-106802661D01*
X230684295Y-106820697D01*
X230680414Y-106830799D01*
X230676209Y-106844356D01*
X230980060Y-106842800D01*
X231283911Y-106841245D01*
X231328509Y-106746175D01*
X231342974Y-106715224D01*
X231355482Y-106688240D01*
X231365210Y-106667013D01*
X231371340Y-106653330D01*
X231373108Y-106648967D01*
X231367293Y-106648522D01*
X231350595Y-106648040D01*
X231324129Y-106647534D01*
X231289013Y-106647020D01*
X231246362Y-106646512D01*
X231197294Y-106646023D01*
X231142926Y-106645568D01*
X231084374Y-106645161D01*
X231062583Y-106645029D01*
X230752059Y-106643229D01*
X230722056Y-106628228D01*
X230702739Y-106615987D01*
X230689484Y-106600886D01*
X230682358Y-106581871D01*
X230681430Y-106557888D01*
X230686769Y-106527885D01*
X230698441Y-106490806D01*
X230716515Y-106445598D01*
X230736762Y-106400426D01*
X230765037Y-106341941D01*
X230791059Y-106293810D01*
X230815760Y-106254813D01*
X230840070Y-106223734D01*
X230864921Y-106199353D01*
X230891242Y-106180453D01*
X230913986Y-106168459D01*
X230926743Y-106162886D01*
X230939446Y-106158149D01*
X230953136Y-106154187D01*
X230968854Y-106150937D01*
X230987640Y-106148340D01*
X231010537Y-106146334D01*
X231038583Y-106144856D01*
X231072820Y-106143847D01*
X231114290Y-106143245D01*
X231164032Y-106142989D01*
X231223087Y-106143017D01*
G37*
G36*
X229640111Y-100462918D02*
G01*
X229696690Y-100463889D01*
X229747459Y-100465409D01*
X229790461Y-100467488D01*
X229823740Y-100470134D01*
X229827986Y-100470605D01*
X229937105Y-100486760D01*
X230036288Y-100508704D01*
X230126264Y-100536716D01*
X230207760Y-100571076D01*
X230281502Y-100612065D01*
X230348218Y-100659962D01*
X230371939Y-100680086D01*
X230432301Y-100739209D01*
X230481644Y-100800120D01*
X230520944Y-100864310D01*
X230551180Y-100933275D01*
X230564378Y-100974052D01*
X230572482Y-101013159D01*
X230577288Y-101060107D01*
X230578804Y-101111202D01*
X230577037Y-101162745D01*
X230571994Y-101211043D01*
X230563844Y-101251805D01*
X230556361Y-101277806D01*
X230546896Y-101307285D01*
X230535250Y-101340697D01*
X230521226Y-101378500D01*
X230504625Y-101421149D01*
X230485249Y-101469100D01*
X230462900Y-101522808D01*
X230437380Y-101582731D01*
X230408492Y-101649323D01*
X230376037Y-101723041D01*
X230339817Y-101804341D01*
X230299635Y-101893678D01*
X230255292Y-101991509D01*
X230206590Y-102098290D01*
X230153331Y-102214477D01*
X230095317Y-102340525D01*
X230032351Y-102476891D01*
X230024484Y-102493903D01*
X230006706Y-102532340D01*
X229984285Y-102580818D01*
X229957615Y-102638483D01*
X229927090Y-102704481D01*
X229893105Y-102777962D01*
X229856055Y-102858071D01*
X229816333Y-102943956D01*
X229774334Y-103034765D01*
X229730453Y-103129644D01*
X229685083Y-103227741D01*
X229638620Y-103328204D01*
X229591457Y-103430179D01*
X229543989Y-103532813D01*
X229496611Y-103635255D01*
X229487482Y-103654994D01*
X229395660Y-103853520D01*
X229308779Y-104041340D01*
X229226749Y-104218647D01*
X229149481Y-104385631D01*
X229076887Y-104542484D01*
X229008878Y-104689397D01*
X228945365Y-104826562D01*
X228886259Y-104954169D01*
X228831471Y-105072411D01*
X228780913Y-105181479D01*
X228734496Y-105281563D01*
X228692131Y-105372856D01*
X228653729Y-105455548D01*
X228619201Y-105529831D01*
X228588459Y-105595897D01*
X228561414Y-105653936D01*
X228537977Y-105704140D01*
X228518059Y-105746700D01*
X228501571Y-105781808D01*
X228488425Y-105809655D01*
X228478532Y-105830433D01*
X228471802Y-105844331D01*
X228468148Y-105851543D01*
X228467476Y-105852667D01*
X228463911Y-105854113D01*
X228455270Y-105855374D01*
X228440889Y-105856461D01*
X228420107Y-105857384D01*
X228392259Y-105858155D01*
X228356685Y-105858783D01*
X228312721Y-105859280D01*
X228259704Y-105859655D01*
X228196972Y-105859920D01*
X228123863Y-105860085D01*
X228039713Y-105860160D01*
X227998107Y-105860168D01*
X227924615Y-105860125D01*
X227854629Y-105859999D01*
X227789072Y-105859799D01*
X227728867Y-105859531D01*
X227674938Y-105859200D01*
X227628208Y-105858815D01*
X227589600Y-105858382D01*
X227560037Y-105857907D01*
X227540443Y-105857398D01*
X227531741Y-105856861D01*
X227531388Y-105856751D01*
X227532106Y-105850090D01*
X227537061Y-105835468D01*
X227545258Y-105815720D01*
X227547727Y-105810247D01*
X227570956Y-105759642D01*
X227598958Y-105698734D01*
X227631462Y-105628110D01*
X227668197Y-105548357D01*
X227708891Y-105460060D01*
X227753275Y-105363807D01*
X227801075Y-105260185D01*
X227852022Y-105149779D01*
X227905845Y-105033176D01*
X227962271Y-104910963D01*
X228021031Y-104783727D01*
X228081852Y-104652053D01*
X228144464Y-104516530D01*
X228208596Y-104377742D01*
X228273976Y-104236278D01*
X228340333Y-104092723D01*
X228407397Y-103947663D01*
X228474896Y-103801687D01*
X228542559Y-103655379D01*
X228610115Y-103509328D01*
X228677293Y-103364118D01*
X228743821Y-103220338D01*
X228809429Y-103078573D01*
X228873845Y-102939410D01*
X228936798Y-102803436D01*
X228998018Y-102671238D01*
X229057232Y-102543401D01*
X229114170Y-102420512D01*
X229168562Y-102303159D01*
X229220134Y-102191927D01*
X229222012Y-102187879D01*
X229279998Y-102062726D01*
X229332962Y-101948169D01*
X229381018Y-101843955D01*
X229424280Y-101749833D01*
X229462863Y-101665551D01*
X229496880Y-101590859D01*
X229526445Y-101525504D01*
X229551674Y-101469236D01*
X229572680Y-101421802D01*
X229589576Y-101382952D01*
X229602478Y-101352434D01*
X229611061Y-101331132D01*
X229616643Y-101314431D01*
X229616804Y-101305811D01*
X229613492Y-101303134D01*
X229598117Y-101300517D01*
X229572172Y-101298603D01*
X229537070Y-101297407D01*
X229494224Y-101296947D01*
X229445044Y-101297238D01*
X229390944Y-101298297D01*
X229338714Y-101299939D01*
X229267190Y-101302848D01*
X229206166Y-101306031D01*
X229154145Y-101309733D01*
X229109626Y-101314200D01*
X229071110Y-101319679D01*
X229037098Y-101326416D01*
X229006089Y-101334656D01*
X228976585Y-101344645D01*
X228947085Y-101356630D01*
X228921179Y-101368435D01*
X228863327Y-101398587D01*
X228813803Y-101430903D01*
X228768938Y-101467921D01*
X228747447Y-101488643D01*
X228737374Y-101498989D01*
X228728065Y-101509198D01*
X228719071Y-101520105D01*
X228709943Y-101532549D01*
X228700233Y-101547366D01*
X228689493Y-101565394D01*
X228677272Y-101587469D01*
X228663124Y-101614429D01*
X228646599Y-101647110D01*
X228627249Y-101686350D01*
X228604625Y-101732985D01*
X228578278Y-101787853D01*
X228547760Y-101851791D01*
X228512622Y-101925636D01*
X228507762Y-101935859D01*
X228476097Y-102002509D01*
X228443967Y-102070223D01*
X228411184Y-102139405D01*
X228377558Y-102210459D01*
X228342899Y-102283789D01*
X228307017Y-102359800D01*
X228269723Y-102438896D01*
X228230828Y-102521481D01*
X228190142Y-102607961D01*
X228147475Y-102698738D01*
X228102638Y-102794218D01*
X228055441Y-102894806D01*
X228005695Y-103000904D01*
X227953209Y-103112918D01*
X227897795Y-103231252D01*
X227839263Y-103356311D01*
X227777423Y-103488498D01*
X227712086Y-103628219D01*
X227643062Y-103775876D01*
X227570161Y-103931876D01*
X227493195Y-104096622D01*
X227411973Y-104270518D01*
X227326305Y-104453970D01*
X227236003Y-104647380D01*
X227140877Y-104851154D01*
X227113832Y-104909093D01*
X226671295Y-105857167D01*
X226212480Y-105858597D01*
X226139224Y-105858763D01*
X226069382Y-105858798D01*
X226003895Y-105858711D01*
X225943701Y-105858509D01*
X225889739Y-105858197D01*
X225842950Y-105857784D01*
X225804271Y-105857276D01*
X225774643Y-105856680D01*
X225755004Y-105856003D01*
X225746295Y-105855252D01*
X225745999Y-105855141D01*
X225744953Y-105853320D01*
X225745051Y-105849459D01*
X225746535Y-105843020D01*
X225749646Y-105833463D01*
X225754627Y-105820251D01*
X225761720Y-105802844D01*
X225771165Y-105780705D01*
X225783206Y-105753295D01*
X225798084Y-105720075D01*
X225816041Y-105680508D01*
X225837319Y-105634053D01*
X225862160Y-105580174D01*
X225890805Y-105518331D01*
X225923496Y-105447987D01*
X225960476Y-105368602D01*
X226001985Y-105279638D01*
X226048267Y-105180557D01*
X226067170Y-105140111D01*
X226162413Y-104936342D01*
X226252747Y-104743069D01*
X226338347Y-104559916D01*
X226419389Y-104386506D01*
X226496047Y-104222465D01*
X226568498Y-104067417D01*
X226636916Y-103920987D01*
X226701476Y-103782799D01*
X226762354Y-103652477D01*
X226819725Y-103529645D01*
X226873764Y-103413929D01*
X226924646Y-103304952D01*
X226972547Y-103202340D01*
X227017641Y-103105716D01*
X227060104Y-103014705D01*
X227100111Y-102928931D01*
X227137838Y-102848020D01*
X227173459Y-102771594D01*
X227207150Y-102699279D01*
X227239085Y-102630699D01*
X227269441Y-102565479D01*
X227298392Y-102503243D01*
X227326114Y-102443615D01*
X227352781Y-102386220D01*
X227378569Y-102330683D01*
X227403654Y-102276627D01*
X227428210Y-102223677D01*
X227452412Y-102171458D01*
X227476436Y-102119594D01*
X227494828Y-102079870D01*
X227546710Y-101968271D01*
X227596625Y-101861857D01*
X227644308Y-101761163D01*
X227689495Y-101666722D01*
X227731923Y-101579072D01*
X227771326Y-101498745D01*
X227807442Y-101426279D01*
X227840005Y-101362207D01*
X227868752Y-101307064D01*
X227893419Y-101261387D01*
X227913741Y-101225709D01*
X227927299Y-101203801D01*
X227957140Y-101159852D01*
X227986336Y-101120278D01*
X228017008Y-101082562D01*
X228051277Y-101044185D01*
X228091263Y-101002629D01*
X228124750Y-100969359D01*
X228198044Y-100900597D01*
X228269147Y-100840597D01*
X228340989Y-100787266D01*
X228416494Y-100738514D01*
X228498590Y-100692245D01*
X228547191Y-100667308D01*
X228678303Y-100608176D01*
X228814590Y-100558913D01*
X228956770Y-100519311D01*
X229105560Y-100489161D01*
X229212937Y-100473700D01*
X229245607Y-100470640D01*
X229288110Y-100468049D01*
X229338490Y-100465938D01*
X229394793Y-100464316D01*
X229455061Y-100463193D01*
X229517341Y-100462580D01*
X229579676Y-100462484D01*
X229640111Y-100462918D01*
G37*
G36*
X233971398Y-100461487D02*
G01*
X234038904Y-100461709D01*
X234106702Y-100462111D01*
X234173326Y-100462692D01*
X234237314Y-100463452D01*
X234297201Y-100464391D01*
X234332296Y-100465077D01*
X234504264Y-100468743D01*
X233662874Y-102271885D01*
X233566819Y-102477737D01*
X233475704Y-102673004D01*
X233389392Y-102857976D01*
X233307744Y-103032943D01*
X233230624Y-103198194D01*
X233157894Y-103354020D01*
X233089417Y-103500709D01*
X233025056Y-103638552D01*
X232964673Y-103767838D01*
X232908131Y-103888857D01*
X232855293Y-104001899D01*
X232806022Y-104107253D01*
X232760179Y-104205208D01*
X232717628Y-104296056D01*
X232678232Y-104380084D01*
X232641853Y-104457584D01*
X232608353Y-104528844D01*
X232577596Y-104594154D01*
X232549445Y-104653805D01*
X232523761Y-104708085D01*
X232500408Y-104757284D01*
X232479248Y-104801692D01*
X232460144Y-104841599D01*
X232442959Y-104877295D01*
X232427555Y-104909068D01*
X232413795Y-104937209D01*
X232401541Y-104962007D01*
X232390658Y-104983753D01*
X232381006Y-105002735D01*
X232372449Y-105019243D01*
X232364849Y-105033568D01*
X232358070Y-105045998D01*
X232351973Y-105056824D01*
X232346422Y-105066335D01*
X232341279Y-105074820D01*
X232336407Y-105082570D01*
X232331668Y-105089874D01*
X232326926Y-105097022D01*
X232322043Y-105104304D01*
X232316881Y-105112008D01*
X232315843Y-105113565D01*
X232234719Y-105224704D01*
X232144761Y-105327800D01*
X232046237Y-105422632D01*
X231939416Y-105508976D01*
X231824565Y-105586611D01*
X231701955Y-105655315D01*
X231607126Y-105699953D01*
X231519275Y-105735566D01*
X231426744Y-105768269D01*
X231333012Y-105797002D01*
X231241558Y-105820708D01*
X231155861Y-105838326D01*
X231148165Y-105839641D01*
X231122350Y-105842926D01*
X231086474Y-105845960D01*
X231041971Y-105848724D01*
X230990280Y-105851199D01*
X230932837Y-105853366D01*
X230871080Y-105855207D01*
X230806445Y-105856702D01*
X230740370Y-105857832D01*
X230674291Y-105858579D01*
X230609646Y-105858923D01*
X230547872Y-105858845D01*
X230490405Y-105858327D01*
X230438683Y-105857349D01*
X230394143Y-105855893D01*
X230358222Y-105853940D01*
X230332356Y-105851470D01*
X230326025Y-105850494D01*
X230220283Y-105827571D01*
X230124162Y-105798251D01*
X230036916Y-105762180D01*
X229957798Y-105719004D01*
X229886060Y-105668367D01*
X229822891Y-105611860D01*
X229793400Y-105580804D01*
X229768261Y-105550366D01*
X229745439Y-105517608D01*
X229722900Y-105479593D01*
X229698609Y-105433384D01*
X229696775Y-105429734D01*
X229662973Y-105362328D01*
X229663115Y-105270721D01*
X229664198Y-105195556D01*
X229667262Y-105131231D01*
X229672401Y-105076733D01*
X229679713Y-105031050D01*
X229689294Y-104993170D01*
X229689634Y-104992090D01*
X229694970Y-104976252D01*
X229702054Y-104956960D01*
X229711067Y-104933818D01*
X229722187Y-104906428D01*
X229735593Y-104874394D01*
X229751464Y-104837318D01*
X229769979Y-104794804D01*
X229791317Y-104746454D01*
X229815657Y-104691872D01*
X229843177Y-104630661D01*
X229874056Y-104562423D01*
X229908474Y-104486763D01*
X229946609Y-104403282D01*
X229988640Y-104311584D01*
X230034747Y-104211271D01*
X230085107Y-104101948D01*
X230139900Y-103983217D01*
X230199305Y-103854681D01*
X230263500Y-103715942D01*
X230309785Y-103615991D01*
X230344416Y-103541222D01*
X230383656Y-103456485D01*
X230427077Y-103362707D01*
X230474252Y-103260811D01*
X230524752Y-103151724D01*
X230578149Y-103036371D01*
X230634014Y-102915676D01*
X230691920Y-102790564D01*
X230751438Y-102661962D01*
X230812141Y-102530793D01*
X230873599Y-102397984D01*
X230935386Y-102264459D01*
X230997072Y-102131144D01*
X231058229Y-101998963D01*
X231118430Y-101868842D01*
X231177246Y-101741706D01*
X231195515Y-101702214D01*
X231248668Y-101587341D01*
X231300521Y-101475331D01*
X231350847Y-101366674D01*
X231399418Y-101261858D01*
X231446009Y-101161372D01*
X231490390Y-101065705D01*
X231532335Y-100975346D01*
X231571616Y-100890784D01*
X231608007Y-100812507D01*
X231641280Y-100741004D01*
X231671207Y-100676764D01*
X231697561Y-100620277D01*
X231720116Y-100572030D01*
X231738643Y-100532513D01*
X231752915Y-100502214D01*
X231762706Y-100481623D01*
X231767787Y-100471228D01*
X231768466Y-100470016D01*
X231775112Y-100469279D01*
X231792633Y-100468728D01*
X231819904Y-100468352D01*
X231855799Y-100468140D01*
X231899194Y-100468081D01*
X231948965Y-100468164D01*
X232003986Y-100468377D01*
X232063133Y-100468711D01*
X232125281Y-100469152D01*
X232189305Y-100469692D01*
X232254080Y-100470317D01*
X232318481Y-100471018D01*
X232381384Y-100471783D01*
X232441664Y-100472602D01*
X232498196Y-100473462D01*
X232549855Y-100474353D01*
X232595516Y-100475264D01*
X232634055Y-100476183D01*
X232664347Y-100477101D01*
X232685267Y-100478004D01*
X232695690Y-100478884D01*
X232696638Y-100479170D01*
X232695942Y-100482519D01*
X232692581Y-100491517D01*
X232686450Y-100506396D01*
X232677442Y-100527386D01*
X232665452Y-100554720D01*
X232650373Y-100588627D01*
X232632099Y-100629339D01*
X232610525Y-100677088D01*
X232585545Y-100732104D01*
X232557051Y-100794618D01*
X232524940Y-100864862D01*
X232489104Y-100943067D01*
X232449437Y-101029464D01*
X232405834Y-101124283D01*
X232358189Y-101227757D01*
X232306395Y-101340116D01*
X232250347Y-101461591D01*
X232189938Y-101592414D01*
X232125063Y-101732815D01*
X232055616Y-101883026D01*
X231981491Y-102043278D01*
X231902581Y-102213803D01*
X231818781Y-102394830D01*
X231763183Y-102514904D01*
X231708830Y-102632303D01*
X231653336Y-102752216D01*
X231596946Y-102874106D01*
X231539908Y-102997440D01*
X231482469Y-103121684D01*
X231424873Y-103246303D01*
X231367369Y-103370762D01*
X231310201Y-103494526D01*
X231253618Y-103617063D01*
X231197865Y-103737836D01*
X231143189Y-103856311D01*
X231089837Y-103971954D01*
X231038054Y-104084231D01*
X230988087Y-104192606D01*
X230940183Y-104296546D01*
X230894588Y-104395515D01*
X230851549Y-104488980D01*
X230811312Y-104576405D01*
X230774124Y-104657257D01*
X230740230Y-104731001D01*
X230709879Y-104797102D01*
X230683315Y-104855026D01*
X230660786Y-104904237D01*
X230642538Y-104944203D01*
X230628817Y-104974388D01*
X230619871Y-104994258D01*
X230619380Y-104995359D01*
X230605036Y-105027621D01*
X230849561Y-105024435D01*
X230924183Y-105023325D01*
X230988141Y-105021956D01*
X231042769Y-105020123D01*
X231089403Y-105017625D01*
X231129378Y-105014257D01*
X231164031Y-105009817D01*
X231194697Y-105004103D01*
X231222711Y-104996910D01*
X231249409Y-104988036D01*
X231276127Y-104977278D01*
X231304200Y-104964433D01*
X231331104Y-104951232D01*
X231385190Y-104922064D01*
X231429939Y-104892755D01*
X231467849Y-104861156D01*
X231501416Y-104825123D01*
X231533136Y-104782509D01*
X231540853Y-104770908D01*
X231546258Y-104762624D01*
X231551443Y-104754608D01*
X231556575Y-104746502D01*
X231561827Y-104737948D01*
X231567367Y-104728590D01*
X231573364Y-104718071D01*
X231579990Y-104706033D01*
X231587414Y-104692119D01*
X231595804Y-104675972D01*
X231605332Y-104657235D01*
X231616168Y-104635551D01*
X231628479Y-104610562D01*
X231642438Y-104581912D01*
X231658213Y-104549243D01*
X231675974Y-104512199D01*
X231695891Y-104470421D01*
X231718134Y-104423553D01*
X231742872Y-104371238D01*
X231770275Y-104313119D01*
X231800514Y-104248838D01*
X231833757Y-104178038D01*
X231870175Y-104100362D01*
X231909938Y-104015453D01*
X231953215Y-103922954D01*
X232000175Y-103822508D01*
X232050990Y-103713758D01*
X232105828Y-103596345D01*
X232164859Y-103469914D01*
X232228254Y-103334107D01*
X232296181Y-103188567D01*
X232368812Y-103032937D01*
X232446314Y-102866860D01*
X232462148Y-102832929D01*
X232543179Y-102659296D01*
X232619400Y-102495982D01*
X232691069Y-102342431D01*
X232758449Y-102198087D01*
X232821798Y-102062392D01*
X232881378Y-101934791D01*
X232937449Y-101814725D01*
X232990271Y-101701638D01*
X233040103Y-101594974D01*
X233087208Y-101494175D01*
X233131844Y-101398685D01*
X233174273Y-101307946D01*
X233214754Y-101221403D01*
X233253547Y-101138498D01*
X233290914Y-101058675D01*
X233327115Y-100981376D01*
X233362409Y-100906044D01*
X233397056Y-100832124D01*
X233431319Y-100759058D01*
X233465455Y-100686289D01*
X233499727Y-100613261D01*
X233516865Y-100576752D01*
X233567571Y-100468743D01*
X233629930Y-100464978D01*
X233654422Y-100463938D01*
X233689449Y-100463078D01*
X233733549Y-100462399D01*
X233785257Y-100461901D01*
X233843110Y-100461583D01*
X233905645Y-100461445D01*
X233971398Y-100461487D01*
G37*
D14*
%TO.C,TP5*%
X244205000Y-94840000D02*
G75*
G03*
X244205000Y-94840000I-1500000J0D01*
G01*
%TO.C,TP4*%
X237220000Y-94840000D02*
G75*
G03*
X237220000Y-94840000I-1500000J0D01*
G01*
%TO.C,TP3*%
X199120000Y-107540000D02*
G75*
G03*
X199120000Y-107540000I-1500000J0D01*
G01*
%TO.C,TP2*%
X213590000Y-84836000D02*
G75*
G03*
X213590000Y-84836000I-1500000J0D01*
G01*
%TO.C,TP1*%
X199120000Y-99920000D02*
G75*
G03*
X199120000Y-99920000I-1500000J0D01*
G01*
%TO.C,C3*%
X204261252Y-79735000D02*
X203738748Y-79735000D01*
X204261252Y-78265000D02*
X203738748Y-78265000D01*
%TO.C,J2*%
X185840000Y-79700000D02*
X185100000Y-79700000D01*
X185100000Y-79700000D02*
X185100000Y-80200000D01*
X195261000Y-79940000D02*
X185340000Y-79940000D01*
X195261000Y-79940000D02*
X195261000Y-90060000D01*
X192301000Y-79940000D02*
X192301000Y-90060000D01*
X187400000Y-79940000D02*
X187400000Y-90060000D01*
X185900000Y-79940000D02*
X185900000Y-90060000D01*
X185340000Y-79940000D02*
X185340000Y-90060000D01*
X188977000Y-86273000D02*
X188931000Y-86226000D01*
X188761000Y-86466000D02*
X188726000Y-86431000D01*
X191275000Y-88570000D02*
X191239000Y-88535000D01*
X191069000Y-88775000D02*
X191023000Y-88728000D01*
X195261000Y-90060000D02*
X185340000Y-90060000D01*
X190683999Y-80965001D02*
G75*
G03*
X189316958Y-80964574I-684000J-1534992D01*
G01*
X191534999Y-83183999D02*
G75*
G03*
X191535426Y-81816958I-1534992J684000D01*
G01*
X188465001Y-81816000D02*
G75*
G03*
X188319748Y-82528805I1535000J-683999D01*
G01*
X188320001Y-82500000D02*
G75*
G03*
X188465245Y-83183318I1679999J0D01*
G01*
X189316000Y-84035000D02*
G75*
G03*
X190683042Y-84035426I684000J1535000D01*
G01*
X191680000Y-87500000D02*
G75*
G03*
X191680000Y-87500000I-1680000J0D01*
G01*
%TO.C,D4*%
X201457500Y-71455000D02*
X201457500Y-74545000D01*
X207007499Y-73000462D02*
G75*
G03*
X201457501Y-71455170I-2989999J462D01*
G01*
X201457500Y-74544830D02*
G75*
G03*
X207007500Y-72999538I2560000J1544830D01*
G01*
X206517500Y-73000000D02*
G75*
G03*
X206517500Y-73000000I-2500000J0D01*
G01*
%TO.C,C2*%
X226336000Y-93204000D02*
X226336000Y-93829000D01*
X226336000Y-93204000D02*
X230376000Y-93204000D01*
X226336000Y-95419000D02*
X226336000Y-96044000D01*
X226336000Y-96044000D02*
X230376000Y-96044000D01*
X230376000Y-93204000D02*
X230376000Y-93829000D01*
X230376000Y-95419000D02*
X230376000Y-96044000D01*
%TO.C,U2*%
X199900000Y-81590000D02*
X205910000Y-81590000D01*
X202150000Y-88410000D02*
X205910000Y-88410000D01*
X205910000Y-81590000D02*
X205910000Y-82850000D01*
X205910000Y-88410000D02*
X205910000Y-87150000D01*
%TO.C,R2*%
X221378000Y-72898000D02*
X222328000Y-72898000D01*
X222328000Y-71978000D02*
X222328000Y-73818000D01*
X222328000Y-73818000D02*
X226168000Y-73818000D01*
X226168000Y-71978000D02*
X222328000Y-71978000D01*
X226168000Y-73818000D02*
X226168000Y-71978000D01*
X227118000Y-72898000D02*
X226168000Y-72898000D01*
%TO.C,R1*%
X227226000Y-75624000D02*
X226276000Y-75624000D01*
X226276000Y-76544000D02*
X226276000Y-74704000D01*
X226276000Y-74704000D02*
X222436000Y-74704000D01*
X222436000Y-76544000D02*
X226276000Y-76544000D01*
X222436000Y-74704000D02*
X222436000Y-76544000D01*
X221486000Y-75624000D02*
X222436000Y-75624000D01*
%TO.C,U1*%
X230996000Y-91754000D02*
X230996000Y-81474000D01*
X230996000Y-81474000D02*
X225696000Y-81474000D01*
X229346000Y-91754000D02*
X230996000Y-91754000D01*
X225696000Y-91754000D02*
X227346000Y-91754000D01*
X225696000Y-81474000D02*
X225696000Y-91754000D01*
X229346000Y-91754000D02*
G75*
G03*
X227346000Y-91754000I-1000000J0D01*
G01*
%TO.C,J1*%
X241748000Y-79130000D02*
X243078000Y-79130000D01*
X241748000Y-80460000D02*
X241748000Y-79130000D01*
X241748000Y-81730000D02*
X241748000Y-86870000D01*
X241748000Y-81730000D02*
X244408000Y-81730000D01*
X241748000Y-86870000D02*
X244408000Y-86870000D01*
X244408000Y-81730000D02*
X244408000Y-86870000D01*
%TO.C,D3*%
X205860000Y-94960000D02*
X205860000Y-93040000D01*
X205860000Y-93040000D02*
X203000000Y-93040000D01*
X203000000Y-94960000D02*
X205860000Y-94960000D01*
%TO.C,R4*%
X198628000Y-70282000D02*
X198628000Y-71232000D01*
X199548000Y-71232000D02*
X197708000Y-71232000D01*
X197708000Y-71232000D02*
X197708000Y-75072000D01*
X199548000Y-75072000D02*
X199548000Y-71232000D01*
X197708000Y-75072000D02*
X199548000Y-75072000D01*
X198628000Y-76022000D02*
X198628000Y-75072000D01*
%TO.C,D2*%
X199582000Y-94868000D02*
X199582000Y-91568000D01*
X199582000Y-94868000D02*
X192572000Y-94868000D01*
X199582000Y-91568000D02*
X192572000Y-91568000D01*
%TO.C,R3*%
X204727064Y-91910000D02*
X203272936Y-91910000D01*
X204727064Y-90090000D02*
X203272936Y-90090000D01*
%TO.C,RV1*%
X210030000Y-107070000D02*
X211629000Y-107070000D01*
X210030000Y-107070000D02*
X210030000Y-103205000D01*
X213371000Y-107070000D02*
X214130000Y-107070000D01*
X215871000Y-107070000D02*
X216630000Y-107070000D01*
X218370000Y-107070000D02*
X219970000Y-107070000D01*
X219970000Y-107070000D02*
X219970000Y-103205000D01*
X210030000Y-98695000D02*
X210030000Y-94830000D01*
X219970000Y-98695000D02*
X219970000Y-94830000D01*
X210030000Y-94830000D02*
X219970000Y-94830000D01*
%TO.C,C1*%
X236776000Y-87154000D02*
X236151000Y-87154000D01*
X236776000Y-87154000D02*
X236776000Y-91194000D01*
X234561000Y-87154000D02*
X233936000Y-87154000D01*
X233936000Y-87154000D02*
X233936000Y-91194000D01*
X236776000Y-91194000D02*
X236151000Y-91194000D01*
X234561000Y-91194000D02*
X233936000Y-91194000D01*
%TO.C,D1*%
X221586000Y-78624000D02*
X222236000Y-78624000D01*
X222236000Y-77504000D02*
X222236000Y-79744000D01*
X222236000Y-79744000D02*
X226476000Y-79744000D01*
X222836000Y-77504000D02*
X222836000Y-79744000D01*
X222956000Y-77504000D02*
X222956000Y-79744000D01*
X223076000Y-77504000D02*
X223076000Y-79744000D01*
X226476000Y-77504000D02*
X222236000Y-77504000D01*
X226476000Y-79744000D02*
X226476000Y-77504000D01*
X227126000Y-78624000D02*
X226476000Y-78624000D01*
%TD*%
M02*
