%TF.GenerationSoftware,KiCad,Pcbnew,7.0.5*%
%TF.CreationDate,2023-06-11T14:56:47+10:00*%
%TF.ProjectId,Servo Controller 555,53657276-6f20-4436-9f6e-74726f6c6c65,rev?*%
%TF.SameCoordinates,Original*%
%TF.FileFunction,Copper,L1,Top*%
%TF.FilePolarity,Positive*%
%FSLAX46Y46*%
G04 Gerber Fmt 4.6, Leading zero omitted, Abs format (unit mm)*
G04 Created by KiCad (PCBNEW 7.0.5) date 2023-06-11 14:56:47*
%MOMM*%
%LPD*%
G01*
G04 APERTURE LIST*
G04 Aperture macros list*
%AMRoundRect*
0 Rectangle with rounded corners*
0 $1 Rounding radius*
0 $2 $3 $4 $5 $6 $7 $8 $9 X,Y pos of 4 corners*
0 Add a 4 corners polygon primitive as box body*
4,1,4,$2,$3,$4,$5,$6,$7,$8,$9,$2,$3,0*
0 Add four circle primitives for the rounded corners*
1,1,$1+$1,$2,$3*
1,1,$1+$1,$4,$5*
1,1,$1+$1,$6,$7*
1,1,$1+$1,$8,$9*
0 Add four rect primitives between the rounded corners*
20,1,$1+$1,$2,$3,$4,$5,0*
20,1,$1+$1,$4,$5,$6,$7,0*
20,1,$1+$1,$6,$7,$8,$9,0*
20,1,$1+$1,$8,$9,$2,$3,0*%
G04 Aperture macros list end*
%TA.AperFunction,ComponentPad*%
%ADD10C,2.000000*%
%TD*%
%TA.AperFunction,SMDPad,CuDef*%
%ADD11RoundRect,0.250000X0.337500X0.475000X-0.337500X0.475000X-0.337500X-0.475000X0.337500X-0.475000X0*%
%TD*%
%TA.AperFunction,ComponentPad*%
%ADD12R,2.600000X2.600000*%
%TD*%
%TA.AperFunction,ComponentPad*%
%ADD13C,2.600000*%
%TD*%
%TA.AperFunction,ComponentPad*%
%ADD14R,1.800000X1.800000*%
%TD*%
%TA.AperFunction,ComponentPad*%
%ADD15C,1.800000*%
%TD*%
%TA.AperFunction,ComponentPad*%
%ADD16C,1.600000*%
%TD*%
%TA.AperFunction,SMDPad,CuDef*%
%ADD17R,2.000000X1.500000*%
%TD*%
%TA.AperFunction,SMDPad,CuDef*%
%ADD18R,2.000000X3.800000*%
%TD*%
%TA.AperFunction,ComponentPad*%
%ADD19C,1.400000*%
%TD*%
%TA.AperFunction,ComponentPad*%
%ADD20O,1.400000X1.400000*%
%TD*%
%TA.AperFunction,ComponentPad*%
%ADD21R,1.600000X1.600000*%
%TD*%
%TA.AperFunction,ComponentPad*%
%ADD22O,1.600000X1.600000*%
%TD*%
%TA.AperFunction,ComponentPad*%
%ADD23R,1.700000X1.700000*%
%TD*%
%TA.AperFunction,ComponentPad*%
%ADD24O,1.700000X1.700000*%
%TD*%
%TA.AperFunction,SMDPad,CuDef*%
%ADD25RoundRect,0.250000X0.325000X0.450000X-0.325000X0.450000X-0.325000X-0.450000X0.325000X-0.450000X0*%
%TD*%
%TA.AperFunction,SMDPad,CuDef*%
%ADD26RoundRect,0.250000X1.500000X0.650000X-1.500000X0.650000X-1.500000X-0.650000X1.500000X-0.650000X0*%
%TD*%
%TA.AperFunction,SMDPad,CuDef*%
%ADD27RoundRect,0.250000X0.312500X0.625000X-0.312500X0.625000X-0.312500X-0.625000X0.312500X-0.625000X0*%
%TD*%
%TA.AperFunction,ComponentPad*%
%ADD28C,4.000000*%
%TD*%
%TA.AperFunction,ViaPad*%
%ADD29C,0.800000*%
%TD*%
%TA.AperFunction,Conductor*%
%ADD30C,0.250000*%
%TD*%
%TA.AperFunction,Conductor*%
%ADD31C,0.400000*%
%TD*%
G04 APERTURE END LIST*
D10*
%TO.P,TP5,1,1*%
%TO.N,/SIGNAL*%
X242705000Y-94840000D03*
%TD*%
%TO.P,TP4,1,1*%
%TO.N,Net-(D1-K)*%
X235720000Y-94840000D03*
%TD*%
%TO.P,TP3,1,1*%
%TO.N,GND*%
X197620000Y-107540000D03*
%TD*%
%TO.P,TP2,1,1*%
%TO.N,+5V*%
X212090000Y-84836000D03*
%TD*%
%TO.P,TP1,1,1*%
%TO.N,+12V*%
X197620000Y-99920000D03*
%TD*%
D11*
%TO.P,C3,1*%
%TO.N,+5V*%
X205037500Y-79000000D03*
%TO.P,C3,2*%
%TO.N,GND*%
X202962500Y-79000000D03*
%TD*%
D12*
%TO.P,J2,1,Pin_1*%
%TO.N,GND*%
X190000000Y-82500000D03*
D13*
%TO.P,J2,2,Pin_2*%
%TO.N,Net-(D2-A)*%
X190000000Y-87500000D03*
%TD*%
D14*
%TO.P,D4,1,K*%
%TO.N,Net-(D4-K)*%
X202747500Y-73000000D03*
D15*
%TO.P,D4,2,A*%
%TO.N,+5V*%
X205287500Y-73000000D03*
%TD*%
D16*
%TO.P,C2,1*%
%TO.N,+5V*%
X227106000Y-94624000D03*
%TO.P,C2,2*%
%TO.N,GND*%
X229606000Y-94624000D03*
%TD*%
D17*
%TO.P,U2,1,GND*%
%TO.N,GND*%
X200850000Y-82700000D03*
%TO.P,U2,2,VO*%
%TO.N,+5V*%
X200850000Y-85000000D03*
D18*
X207150000Y-85000000D03*
D17*
%TO.P,U2,3,VI*%
%TO.N,+12V*%
X200850000Y-87300000D03*
%TD*%
D19*
%TO.P,R2,1*%
%TO.N,Net-(R2-Pad1)*%
X220438000Y-72898000D03*
D20*
%TO.P,R2,2*%
%TO.N,Net-(D1-A)*%
X228058000Y-72898000D03*
%TD*%
D19*
%TO.P,R1,1*%
%TO.N,Net-(D1-A)*%
X228166000Y-75624000D03*
D20*
%TO.P,R1,2*%
%TO.N,Net-(D1-K)*%
X220546000Y-75624000D03*
%TD*%
D21*
%TO.P,U1,1,GND*%
%TO.N,GND*%
X232156000Y-90424000D03*
D22*
%TO.P,U1,2,TR*%
%TO.N,Net-(D1-K)*%
X232156000Y-87884000D03*
%TO.P,U1,3,Q*%
%TO.N,/SIGNAL*%
X232156000Y-85344000D03*
%TO.P,U1,4,R*%
%TO.N,+5V*%
X232156000Y-82804000D03*
%TO.P,U1,5,CV*%
%TO.N,unconnected-(U1-CV-Pad5)*%
X224536000Y-82804000D03*
%TO.P,U1,6,THR*%
%TO.N,Net-(D1-K)*%
X224536000Y-85344000D03*
%TO.P,U1,7,DIS*%
%TO.N,Net-(D1-A)*%
X224536000Y-87884000D03*
%TO.P,U1,8,VCC*%
%TO.N,+5V*%
X224536000Y-90424000D03*
%TD*%
D23*
%TO.P,J1,1,Pin_1*%
%TO.N,GND*%
X243078000Y-80460000D03*
D24*
%TO.P,J1,2,Pin_2*%
%TO.N,+5V*%
X243078000Y-83000000D03*
%TO.P,J1,3,Pin_3*%
%TO.N,/SIGNAL*%
X243078000Y-85540000D03*
%TD*%
D25*
%TO.P,D3,1,K*%
%TO.N,Net-(D3-K)*%
X205025000Y-94000000D03*
%TO.P,D3,2,A*%
%TO.N,+12V*%
X202975000Y-94000000D03*
%TD*%
D19*
%TO.P,R4,1*%
%TO.N,Net-(D4-K)*%
X198628000Y-69342000D03*
D20*
%TO.P,R4,2*%
%TO.N,GND*%
X198628000Y-76962000D03*
%TD*%
D26*
%TO.P,D2,1,K*%
%TO.N,+12V*%
X197572000Y-93218000D03*
%TO.P,D2,2,A*%
%TO.N,Net-(D2-A)*%
X192572000Y-93218000D03*
%TD*%
D27*
%TO.P,R3,1*%
%TO.N,Net-(D3-K)*%
X205462500Y-91000000D03*
%TO.P,R3,2*%
%TO.N,GND*%
X202537500Y-91000000D03*
%TD*%
D28*
%TO.P,RV1,*%
%TO.N,*%
X210600000Y-100950000D03*
X219400000Y-100950000D03*
D15*
%TO.P,RV1,1,1*%
%TO.N,Net-(R2-Pad1)*%
X217500000Y-107950000D03*
%TO.P,RV1,2,2*%
%TO.N,+5V*%
X215000000Y-107950000D03*
%TO.P,RV1,3,3*%
%TO.N,unconnected-(RV1-Pad3)*%
X212500000Y-107950000D03*
%TD*%
D16*
%TO.P,C1,1*%
%TO.N,Net-(D1-K)*%
X235356000Y-87924000D03*
%TO.P,C1,2*%
%TO.N,GND*%
X235356000Y-90424000D03*
%TD*%
D21*
%TO.P,D1,1,K*%
%TO.N,Net-(D1-K)*%
X220546000Y-78624000D03*
D22*
%TO.P,D1,2,A*%
%TO.N,Net-(D1-A)*%
X228166000Y-78624000D03*
%TD*%
D29*
%TO.N,GND*%
X201422000Y-89662000D03*
%TO.N,+5V*%
X215138000Y-90424000D03*
%TD*%
D30*
%TO.N,+5V*%
X207314000Y-84836000D02*
X207150000Y-85000000D01*
X212090000Y-84836000D02*
X207314000Y-84836000D01*
%TO.N,Net-(D1-K)*%
X237625000Y-92935000D02*
X235720000Y-94840000D01*
X235356000Y-87924000D02*
X237625000Y-90193000D01*
X237625000Y-90193000D02*
X237625000Y-92935000D01*
%TO.N,/SIGNAL*%
X242705000Y-94840000D02*
X242705000Y-85913000D01*
X242705000Y-85913000D02*
X243078000Y-85540000D01*
%TO.N,+12V*%
X197620000Y-93266000D02*
X197572000Y-93218000D01*
X197620000Y-99920000D02*
X197620000Y-93266000D01*
D31*
%TO.N,+5V*%
X228600000Y-69596000D02*
X242004000Y-83000000D01*
X208274000Y-79000000D02*
X217678000Y-69596000D01*
X217678000Y-69596000D02*
X228600000Y-69596000D01*
X205037500Y-79000000D02*
X208274000Y-79000000D01*
X242004000Y-83000000D02*
X243078000Y-83000000D01*
D30*
X205287500Y-78750000D02*
X205287500Y-73000000D01*
X205037500Y-79000000D02*
X205287500Y-78750000D01*
%TO.N,Net-(D4-K)*%
X198628000Y-69342000D02*
X202286000Y-73000000D01*
X202286000Y-73000000D02*
X202747500Y-73000000D01*
%TO.N,GND*%
X202190000Y-79000000D02*
X202962500Y-79000000D01*
X200152000Y-76962000D02*
X202190000Y-79000000D01*
X198628000Y-76962000D02*
X200152000Y-76962000D01*
%TO.N,Net-(D1-K)*%
X229616000Y-85344000D02*
X232156000Y-87884000D01*
X220546000Y-81354000D02*
X220546000Y-78624000D01*
X220546000Y-78624000D02*
X220546000Y-75624000D01*
X235356000Y-87924000D02*
X232196000Y-87924000D01*
X224536000Y-85344000D02*
X220546000Y-81354000D01*
X232196000Y-87924000D02*
X232156000Y-87884000D01*
X224536000Y-85344000D02*
X229616000Y-85344000D01*
D31*
%TO.N,GND*%
X200650000Y-82500000D02*
X200850000Y-82700000D01*
X190000000Y-82500000D02*
X200650000Y-82500000D01*
D30*
X202537500Y-91000000D02*
X202537500Y-90777500D01*
X202537500Y-90777500D02*
X201422000Y-89662000D01*
%TO.N,+5V*%
X215138000Y-90424000D02*
X215000000Y-90562000D01*
X215000000Y-90562000D02*
X215000000Y-107950000D01*
X227106000Y-94624000D02*
X227106000Y-92994000D01*
X205037500Y-79000000D02*
X207150000Y-81112500D01*
X200850000Y-85000000D02*
X207150000Y-85000000D01*
X212574000Y-90424000D02*
X207150000Y-85000000D01*
X227106000Y-92994000D02*
X224536000Y-90424000D01*
X207150000Y-81112500D02*
X207150000Y-85000000D01*
X215138000Y-90424000D02*
X212574000Y-90424000D01*
%TO.N,Net-(D1-A)*%
X228166000Y-78624000D02*
X228166000Y-75624000D01*
X228058000Y-72898000D02*
X228058000Y-75516000D01*
X228058000Y-75516000D02*
X228166000Y-75624000D01*
%TO.N,+12V*%
X201442000Y-94000000D02*
X202975000Y-94000000D01*
D31*
X197572000Y-89194000D02*
X199466000Y-87300000D01*
D30*
X200850000Y-87300000D02*
X200406000Y-87744000D01*
D31*
X199466000Y-87300000D02*
X200850000Y-87300000D01*
X197572000Y-93218000D02*
X197572000Y-89194000D01*
D30*
X200406000Y-92964000D02*
X201442000Y-94000000D01*
X200406000Y-87744000D02*
X200406000Y-92964000D01*
D31*
%TO.N,Net-(D2-A)*%
X190000000Y-87500000D02*
X190000000Y-90646000D01*
X190000000Y-90646000D02*
X192572000Y-93218000D01*
D30*
%TO.N,Net-(D3-K)*%
X205462500Y-93562500D02*
X205025000Y-94000000D01*
X205462500Y-91000000D02*
X205462500Y-93562500D01*
%TO.N,/SIGNAL*%
X232156000Y-85344000D02*
X242882000Y-85344000D01*
X242882000Y-85344000D02*
X243078000Y-85540000D01*
%TO.N,Net-(R2-Pad1)*%
X216600000Y-76736000D02*
X216600000Y-107050000D01*
X216600000Y-107050000D02*
X217500000Y-107950000D01*
X220438000Y-72898000D02*
X216600000Y-76736000D01*
%TD*%
M02*
